<svg width="14" height="17" viewBox="0 0 14 17" fill="none" xmlns="http://www.w3.org/2000/svg">
<path fill-rule="evenodd" clip-rule="evenodd" d="M10.0723 0C10.2189 0.995531 9.81369 1.97082 9.27915 2.66085C8.70725 3.401 7.72151 3.97345 6.76643 3.94358C6.59208 2.99045 7.03849 2.00841 7.58165 1.34826C8.1775 0.619677 9.19868 0.0607149 10.0723 0ZM12.9415 14.0126C13.4338 13.258 13.6178 12.8773 14 12.0254C11.22 10.9681 10.7746 7.01589 13.5258 5.49899C12.6866 4.4466 11.5074 3.83656 10.3942 3.83656C9.59217 3.83656 9.04262 4.04587 8.54303 4.23615C8.12669 4.39472 7.74505 4.54008 7.28088 4.54008C6.77927 4.54008 6.33507 4.38081 5.86995 4.21404C5.35886 4.03079 4.82251 3.83848 4.15697 3.83848C2.90779 3.83848 1.57815 4.60176 0.735141 5.90664C-0.449854 7.74447 -0.247725 11.1994 1.67394 14.1427C2.3608 15.196 3.27852 16.3795 4.47884 16.3901C4.9769 16.395 5.30833 16.2464 5.66698 16.0855C6.07749 15.9014 6.52367 15.7013 7.2962 15.6972C8.07329 15.6925 8.51243 15.8951 8.91749 16.0819C9.26693 16.2431 9.59101 16.3925 10.0848 16.3872C11.2861 16.3775 12.2546 15.0659 12.9415 14.0126Z" fill="#0B0B0A"/>
</svg>
