<svg width="30" height="30" viewBox="0 0 30 30" fill="none" xmlns="http://www.w3.org/2000/svg">
<path d="M15.375 13.625C12.5375 12.8875 11.625 12.125 11.625 10.9375C11.625 9.575 12.8875 8.625 15 8.625C16.775 8.625 17.6625 9.3 17.9875 10.375C18.1375 10.875 18.55 11.25 19.075 11.25H19.45C20.275 11.25 20.8625 10.4375 20.575 9.6625C20.05 8.1875 18.825 6.9625 16.875 6.4875V5.625C16.875 4.5875 16.0375 3.75 15 3.75C13.9625 3.75 13.125 4.5875 13.125 5.625V6.45C10.7 6.975 8.75 8.55 8.75 10.9625C8.75 13.85 11.1375 15.2875 14.625 16.125C17.75 16.875 18.375 17.975 18.375 19.1375C18.375 20 17.7625 21.375 15 21.375C12.9375 21.375 11.875 20.6375 11.4625 19.5875C11.275 19.1 10.85 18.75 10.3375 18.75H9.9875C9.15 18.75 8.5625 19.6 8.875 20.375C9.5875 22.1125 11.25 23.1375 13.125 23.5375V24.375C13.125 25.4125 13.9625 26.25 15 26.25C16.0375 26.25 16.875 25.4125 16.875 24.375V23.5625C19.3125 23.1 21.25 21.6875 21.25 19.125C21.25 15.575 18.2125 14.3625 15.375 13.625Z" fill="#83B0F3"/>
</svg>
