<svg width="14" height="14" viewBox="0 0 14 14" fill="none" xmlns="http://www.w3.org/2000/svg">
<path d="M13.1256 7.136C13.1256 6.63239 13.0839 6.26489 12.9937 5.88379H7.12561V8.15682H10.57C10.5006 8.7217 10.1256 9.57239 9.29226 10.144L9.28058 10.2201L11.1359 11.6287L11.2645 11.6413C12.445 10.5728 13.1256 9.00071 13.1256 7.136" fill="white"/>
<path d="M7.1252 13.1251C8.81267 13.1251 10.2293 12.5806 11.2641 11.6415L9.29184 10.1442C8.76407 10.5049 8.05573 10.7567 7.1252 10.7567C5.47244 10.7567 4.06968 9.68824 3.56963 8.21143L3.49633 8.21753L1.5671 9.68074L1.54187 9.74947C2.56963 11.7503 4.68074 13.1251 7.1252 13.1251Z" fill="white"/>
<path d="M3.57002 8.21136C3.43808 7.83025 3.36172 7.42189 3.36172 6.99997C3.36172 6.57799 3.43808 6.16968 3.56308 5.78857L3.55959 5.70741L1.60617 4.2207L1.54226 4.2505C1.11867 5.08078 0.87561 6.01316 0.87561 6.99997C0.87561 7.98677 1.11867 8.9191 1.54226 9.74939L3.57002 8.21136" fill="white"/>
<path d="M7.12523 3.24332C8.29882 3.24332 9.09047 3.74012 9.54188 4.15529L11.3058 2.4675C10.2225 1.4807 8.81271 0.875 7.12523 0.875C4.68076 0.875 2.56964 2.24971 1.54187 4.25053L3.5627 5.7886C4.06969 4.3118 5.47246 3.24332 7.12523 3.24332" fill="white"/>
</svg>
