<svg width="32" height="32" viewBox="0 0 32 32" fill="none" xmlns="http://www.w3.org/2000/svg">
<path d="M2 12.1333C2 8.58633 2 6.81283 2.69029 5.45806C3.29749 4.26637 4.26637 3.29749 5.45806 2.69029C6.81283 2 8.58633 2 12.1333 2H19.8667C23.4137 2 25.1872 2 26.5419 2.69029C27.7336 3.29749 28.7025 4.26637 29.3097 5.45806C30 6.81283 30 8.58633 30 12.1333V19.8667C30 23.4137 30 25.1872 29.3097 26.5419C28.7025 27.7336 27.7336 28.7025 26.5419 29.3097C25.1872 30 23.4137 30 19.8667 30H12.1333C8.58633 30 6.81283 30 5.45806 29.3097C4.26637 28.7025 3.29749 27.7336 2.69029 26.5419C2 25.1872 2 23.4137 2 19.8667V12.1333Z" fill="#00005B"/>
<path d="M18.0424 8L9.1285 17.0491L8 21.6702L12.5394 20.5117L21.4532 11.4626L18.0424 8Z" fill="#9999FF"/>
<path d="M18.3973 23.9743C17.7895 23.8971 17.4449 23.3633 17.3069 22.8029C16.0896 23.4594 15.0372 23.9228 13.1099 23.9228H8.50713C8.36765 23.9228 8.25353 23.8069 8.25353 23.6653C8.25353 23.5237 8.36765 23.4079 8.50713 23.4079H13.1099C15.1006 23.4079 16.0896 22.9187 17.2435 22.2751C17.1753 21.0293 17.9379 18.0448 19.7414 18.8898C21.5445 19.7478 18.4452 22.1418 17.7887 22.5455C17.8444 22.9412 18.0521 23.4172 18.4861 23.4722C19.6146 23.6138 20.6163 22.5326 21.2123 21.9018C21.4071 21.6904 21.9201 21.0516 22.1886 21.5286C22.29 21.7216 22.1886 21.9405 22.0111 22.3266C21.8553 22.6717 21.3788 23.4851 22.0364 23.4851C22.3788 23.4851 23.4185 22.6999 23.5073 22.4296C23.5453 22.288 23.6848 22.2237 23.8243 22.2623C23.9638 22.3009 24.0272 22.4425 23.9891 22.5841C23.837 23.099 22.5944 24 22.0364 24C21.6814 24 21.4278 23.8842 21.2883 23.6653C21.0855 23.3307 21.2123 22.8801 21.3898 22.4553C20.6037 23.2534 19.5909 24.1257 18.3973 23.9743ZM17.7253 21.9533C18.0407 21.7473 20.5369 19.8664 19.5005 19.3403C18.235 18.7693 17.7468 21.1583 17.7253 21.9533Z" fill="#9999FF"/>
</svg>
