<svg width="32" height="32" viewBox="0 0 32 32" fill="none" xmlns="http://www.w3.org/2000/svg">
<path d="M2 12.1333C2 8.58633 2 6.81283 2.69029 5.45806C3.29749 4.26637 4.26637 3.29749 5.45806 2.69029C6.81283 2 8.58633 2 12.1333 2H19.8667C23.4137 2 25.1872 2 26.5419 2.69029C27.7336 3.29749 28.7025 4.26637 29.3097 5.45806C30 6.81283 30 8.58633 30 12.1333V19.8667C30 23.4137 30 25.1872 29.3097 26.5419C28.7025 27.7336 27.7336 28.7025 26.5419 29.3097C25.1872 30 23.4137 30 19.8667 30H12.1333C8.58633 30 6.81283 30 5.45806 29.3097C4.26637 28.7025 3.29749 27.7336 2.69029 26.5419C2 25.1872 2 23.4137 2 19.8667V12.1333Z" fill="#370000"/>
<path d="M10.5227 22.2731C9.40231 22.2945 8.22159 22.1102 7.19811 21.615C7.09349 21.5662 7.047 21.4565 7.047 21.2859V18.9459C7.047 18.8465 7.12752 18.7909 7.20974 18.8484C8.2177 19.506 9.4042 19.8722 10.5924 19.8722C11.3372 19.8722 12.5686 19.7227 12.5686 18.6778C12.5686 17.4159 10.7854 16.9997 9.91821 16.6181C8.30883 15.8912 7.0005 14.8243 7.0005 12.8521C6.97725 11.4384 7.76771 10.1343 8.99989 9.5615C10.4977 8.81765 12.8665 8.80803 14.3936 9.5615C14.475 9.61025 14.5331 9.70775 14.5215 9.81744V12.0356C14.5215 12.1333 14.422 12.1585 14.3587 12.1087C13.4762 11.6461 12.4728 11.4276 11.4875 11.4506C10.8765 11.4506 9.9474 11.5243 9.61598 12.1696C8.97416 13.5155 11.0972 14.1716 11.999 14.534C13.6532 15.2424 15.184 16.3892 15.184 18.4584C15.2267 21.1397 12.6982 22.2731 10.5227 22.2731Z" fill="#FA0F00"/>
<path d="M20.264 12.1281C22.8938 12.1281 25.0142 14.1234 24.9986 16.8959C25.0343 18.4499 24.3945 19.968 23.2235 20.9324C21.9447 21.9848 20.4381 22.2536 18.8632 22.2536V25.5881C18.8727 25.68 18.8027 25.7632 18.7145 25.7648C17.9573 25.844 17.1835 25.9293 16.4303 26C16.3559 26 16.314 25.9476 16.314 25.844V14.3256C16.314 13.9039 16.308 13.4681 16.2571 13.0495C16.2479 12.9964 16.2826 12.9404 16.3326 12.9276C17.5823 12.4527 18.9299 12.1172 20.264 12.1281ZM18.8539 14.5364V19.8989C20.6834 20.5341 22.3261 18.9304 22.3261 17.0763C22.3261 15.0423 20.7088 14.017 18.8539 14.5364Z" fill="#FA0F00"/>
</svg>
