<svg width="32" height="32" viewBox="0 0 32 32" fill="none" xmlns="http://www.w3.org/2000/svg">
<path d="M2 12.1333C2 8.58633 2 6.81283 2.69029 5.45806C3.29749 4.26637 4.26637 3.29749 5.45806 2.69029C6.81283 2 8.58633 2 12.1333 2H19.8667C23.4137 2 25.1872 2 26.5419 2.69029C27.7336 3.29749 28.7025 4.26637 29.3097 5.45806C30 6.81283 30 8.58633 30 12.1333V19.8667C30 23.4137 30 25.1872 29.3097 26.5419C28.7025 27.7336 27.7336 28.7025 26.5419 29.3097C25.1872 30 23.4137 30 19.8667 30H12.1333C8.58633 30 6.81283 30 5.45806 29.3097C4.26637 28.7025 3.29749 27.7336 2.69029 26.5419C2 25.1872 2 23.4137 2 19.8667V12.1333Z" fill="#49021F"/>
<path d="M11.5921 10.1955V22.4673C11.5921 22.5958 11.5357 22.66 11.4231 22.6599H9.15022C9.0499 22.6599 8.99983 22.5957 9 22.4673V10.1955C9 10.0928 9.05634 10.0415 9.16902 10.0414H11.4418C11.528 10.0288 11.6043 10.1071 11.5921 10.1955Z" fill="#FF3366"/>
<path d="M18.3166 22.8525C17.452 22.866 16.5954 22.6817 15.809 22.3131C14.1394 21.5206 13.4139 19.7665 13.4141 17.9592C13.3997 16.1563 14.3545 14.4385 15.9123 13.5861C16.9876 12.9751 18.2525 12.8199 19.4623 12.9311V9.13586C19.4623 9.04615 19.4999 9.00101 19.5751 9.00101H21.9417C22.0064 8.99153 22.0637 9.05023 22.0544 9.11658V20.5022C22.0544 20.9719 22.101 21.4401 22.1296 21.9085C22.1342 21.9886 22.0879 22.0677 22.0168 22.1012C21.4063 22.3623 20.7703 22.5561 20.1198 22.6791C19.5249 22.7917 18.9214 22.8498 18.3166 22.8525ZM19.4623 20.4637V15.2043C17.7545 14.7298 16.0811 16.0337 16.0813 17.8436C16.04 19.7391 17.7301 20.9833 19.4623 20.4637Z" fill="#FF3366"/>
</svg>
