<svg width="32" height="32" viewBox="0 0 32 32" fill="none" xmlns="http://www.w3.org/2000/svg">
<path d="M2 12.1333C2 8.58633 2 6.81283 2.69029 5.45806C3.29749 4.26637 4.26637 3.29749 5.45806 2.69029C6.81283 2 8.58633 2 12.1333 2H19.8667C23.4137 2 25.1872 2 26.5419 2.69029C27.7336 3.29749 28.7025 4.26637 29.3097 5.45806C30 6.81283 30 8.58633 30 12.1333V19.8667C30 23.4137 30 25.1872 29.3097 26.5419C28.7025 27.7336 27.7336 28.7025 26.5419 29.3097C25.1872 30 23.4137 30 19.8667 30H12.1333C8.58633 30 6.81283 30 5.45806 29.3097C4.26637 28.7025 3.29749 27.7336 2.69029 26.5419C2 25.1872 2 23.4137 2 19.8667V12.1333Z" fill="#49021F"/>
<path d="M12.6926 10.1577V22.6084C12.6926 22.7388 12.6341 22.8039 12.517 22.8038H10.156C10.0518 22.8038 9.99982 22.7387 10 22.6084V10.1577C10 10.0536 10.0585 10.0015 10.1756 10.0014H12.5365C12.6261 9.9886 12.7053 10.068 12.6926 10.1577Z" fill="#FF3366"/>
<path d="M21.9998 20.5169V22.5301C22.0014 22.5656 21.9931 22.6008 21.9759 22.6319C21.9587 22.663 21.9332 22.6886 21.9023 22.706C21.5698 22.831 21.2219 22.9099 20.8681 22.9406C20.4779 22.9797 20.1007 22.9992 19.7365 22.9992C18.9978 23.011 18.2633 22.8851 17.5706 22.6279C16.9605 22.3984 16.4078 22.0382 15.9512 21.5724C15.506 21.1122 15.1577 20.5672 14.9268 19.9696C14.6829 19.3404 14.5604 18.6705 14.5658 17.9955C14.5479 17.073 14.7842 16.1634 15.2487 15.3666C15.7106 14.5979 16.3758 13.9722 17.1707 13.5586C17.9966 13.1158 18.9624 12.8943 20.0681 12.8941C20.4531 12.887 20.8379 12.9099 21.2193 12.9625C21.4434 12.9973 21.6649 13.0462 21.8828 13.1091C21.951 13.1564 21.9896 13.2414 21.9803 13.3241L21.9608 15.3373C21.9608 15.4546 21.9088 15.5002 21.8047 15.4741C21.5895 15.3973 21.3673 15.3417 21.1413 15.308C20.8185 15.2588 20.4922 15.2359 20.1657 15.2396C18.5597 15.2151 17.3362 16.2575 17.3365 17.8978C17.3365 19.6059 18.6112 20.5712 20.2438 20.5756C20.5566 20.577 20.8693 20.5606 21.1803 20.5267C21.4051 20.5064 21.6274 20.4639 21.8438 20.3996C21.9477 20.3737 21.9997 20.4128 21.9998 20.5169Z" fill="#FF3366"/>
</svg>
