<svg width="32" height="32" viewBox="0 0 32 32" fill="none" xmlns="http://www.w3.org/2000/svg">
<path d="M2 12.1333C2 8.58633 2 6.81283 2.69029 5.45806C3.29749 4.26637 4.26637 3.29749 5.45806 2.69029C6.81283 2 8.58633 2 12.1333 2H19.8667C23.4137 2 25.1872 2 26.5419 2.69029C27.7336 3.29749 28.7025 4.26637 29.3097 5.45806C30 6.81283 30 8.58633 30 12.1333V19.8667C30 23.4137 30 25.1872 29.3097 26.5419C28.7025 27.7336 27.7336 28.7025 26.5419 29.3097C25.1872 30 23.4137 30 19.8667 30H12.1333C8.58633 30 6.81283 30 5.45806 29.3097C4.26637 28.7025 3.29749 27.7336 2.69029 26.5419C2 25.1872 2 23.4137 2 19.8667V12.1333Z" fill="#000B1D"/>
<path d="M12.5124 22.9984C11.3953 23.0193 10.218 22.8389 9.19753 22.3539C9.09322 22.3061 9.04686 22.1987 9.04686 22.0316V19.7401C9.04686 19.6427 9.12714 19.5883 9.20912 19.6446C10.2141 20.2885 11.3972 20.6471 12.5819 20.6471C13.3245 20.6471 14.5523 20.5008 14.5523 19.4775C14.5523 18.2417 12.7743 17.8341 11.9097 17.4604C10.305 16.7486 9.0005 15.7038 9.0005 13.7724C8.97732 12.3879 9.76546 11.1108 10.994 10.5499C12.4874 9.82142 14.8493 9.81201 16.3719 10.5499C16.4531 10.5976 16.511 10.6931 16.4994 10.8005V12.9727C16.4994 13.0685 16.4003 13.0931 16.3372 13.0444C15.4573 12.5913 14.4568 12.3774 13.4744 12.3998C12.8652 12.3998 11.9388 12.4721 11.6083 13.104C10.9684 14.422 13.0852 15.0646 13.9843 15.4195C15.6337 16.1132 17.1601 17.2363 17.1601 19.2626C17.2026 21.8885 14.6815 22.9984 12.5124 22.9984Z" fill="white"/>
<path d="M23.4884 20.8979V22.4733C23.4884 22.6166 23.442 22.7001 23.3377 22.724C21.2578 23.4379 19.1073 22.7123 19.1073 20.2414V15.4554H17.983C17.8787 15.4554 17.8323 15.3957 17.8323 15.2883L17.8439 13.3906C17.8439 13.2832 17.9019 13.2354 18.0062 13.2354H19.1304C19.172 12.4654 19.2169 11.6965 19.3159 10.9319C19.3397 10.8584 19.3929 10.7782 19.4666 10.7529L21.6919 10.4664C21.7869 10.4338 21.8194 10.4953 21.8194 10.5858C21.7506 11.4717 21.7598 12.3596 21.7383 13.2473H23.3841C23.4536 13.2473 23.5 13.2951 23.5 13.4025L23.4884 15.336C23.5 15.3957 23.4536 15.4554 23.3957 15.4673H21.7499V19.6089C21.7499 20.0385 21.7962 20.3608 21.9353 20.5398C22.2353 20.9259 22.9048 20.8281 23.3377 20.7785C23.426 20.7482 23.4884 20.8091 23.4884 20.8979Z" fill="white"/>
</svg>
