<svg width="32" height="32" viewBox="0 0 32 32" fill="none" xmlns="http://www.w3.org/2000/svg">
<path d="M2 12.1333C2 8.58633 2 6.81283 2.69029 5.45806C3.29749 4.26637 4.26637 3.29749 5.45806 2.69029C6.81283 2 8.58633 2 12.1333 2H19.8667C23.4137 2 25.1872 2 26.5419 2.69029C27.7336 3.29749 28.7025 4.26637 29.3097 5.45806C30 6.81283 30 8.58633 30 12.1333V19.8667C30 23.4137 30 25.1872 29.3097 26.5419C28.7025 27.7336 27.7336 28.7025 26.5419 29.3097C25.1872 30 23.4137 30 19.8667 30H12.1333C8.58633 30 6.81283 30 5.45806 29.3097C4.26637 28.7025 3.29749 27.7336 2.69029 26.5419C2 25.1872 2 23.4137 2 19.8667V12.1333Z" fill="#00005B"/>
<path d="M9.3926 21.813H7.151C7.05033 21.813 7 21.7549 7 21.6374V9.2338C7 9.11266 7.03746 9.05815 7.11705 9.05815C8.4347 9.01704 9.75183 9 11.07 9C13.4821 9 15.9512 10.0783 15.9512 12.9237C15.9649 14.4626 14.9453 15.7722 13.596 16.3278C14.6987 18.0722 15.8107 19.8288 16.9122 21.5744C16.9587 21.631 17.0022 21.8223 16.8747 21.8082H14.1427C14.0409 21.8141 13.9368 21.7829 13.8781 21.6919C12.9721 20.3252 12.1701 18.866 11.386 17.4217C11.2824 17.2569 11.1481 17.0843 10.9401 17.0958H9.54828V21.6398C9.54828 21.7549 9.49327 21.813 9.3926 21.813ZM9.5436 14.7869C10.798 14.7869 13.3987 15.069 13.3315 13.057C13.3315 11.1236 10.8751 11.2776 9.5436 11.3998V14.7869Z" fill="#9999FF"/>
<path d="M25.9037 12.2137V19.6398C25.9037 20.1493 25.8998 20.6634 25.9508 21.1708C25.9697 21.3594 25.9853 21.4724 25.998 21.6022C26.0103 21.7064 25.9665 21.7582 25.8661 21.7582H23.8496C23.7545 21.7686 23.6614 21.7124 23.6234 21.6217C23.5744 21.442 23.5316 21.2511 23.5291 21.0635C22.8094 21.7282 21.8583 21.9921 20.9096 21.9997C18.8557 22.0253 17.6974 20.2897 17.7435 18.2355V12.2331C17.7311 12.1436 17.8077 12.0643 17.8943 12.0771H20.1339C20.2204 12.0644 20.297 12.1436 20.2847 12.2331V17.9234C20.2847 18.963 20.7906 19.6398 21.833 19.6398C22.3813 19.6468 22.9255 19.4202 23.3671 19.0937V12.2137C23.3671 12.1228 23.4237 12.0771 23.5368 12.0771H25.7718C25.8475 12.0661 25.9144 12.1353 25.9037 12.2137Z" fill="#9999FF"/>
</svg>
