<svg width="32" height="32" viewBox="0 0 32 32" fill="none" xmlns="http://www.w3.org/2000/svg">
<path d="M2 12.1333C2 8.58633 2 6.81283 2.69029 5.45806C3.29749 4.26637 4.26637 3.29749 5.45806 2.69029C6.81283 2 8.58633 2 12.1333 2H19.8667C23.4137 2 25.1872 2 26.5419 2.69029C27.7336 3.29749 28.7025 4.26637 29.3097 5.45806C30 6.81283 30 8.58633 30 12.1333V19.8667C30 23.4137 30 25.1872 29.3097 26.5419C28.7025 27.7336 27.7336 28.7025 26.5419 29.3097C25.1872 30 23.4137 30 19.8667 30H12.1333C8.58633 30 6.81283 30 5.45806 29.3097C4.26637 28.7025 3.29749 27.7336 2.69029 26.5419C2 25.1872 2 23.4137 2 19.8667V12.1333Z" fill="#001E36"/>
<path d="M10.1969 20.3255V11.2995C10.1969 11.2375 10.2217 11.2003 10.2837 11.2003C11.1928 11.2003 12.1022 11.1507 13.0116 11.1507C14.9418 11.1122 16.8432 12.204 16.8432 14.2751C16.8432 17.0688 14.3822 17.4863 12.1065 17.4863V20.3007C12.1245 20.3909 12.0422 20.4247 11.9701 20.4247H10.2961C10.2341 20.4495 10.1969 20.4123 10.1969 20.3255ZM12.1065 12.8989V15.8497C12.7004 15.9091 13.3654 15.8888 13.9292 15.7009C14.5699 15.506 14.9212 14.9832 14.9212 14.3247C14.9465 13.7691 14.6113 13.2461 14.0904 13.0477C13.5091 12.8324 12.7264 12.7956 12.1065 12.8989Z" fill="#31A8FF"/>
<path d="M22.3115 15.3043C21.7595 15.0152 21.108 14.8952 20.4887 14.8952C20.1685 14.8952 19.6083 14.9264 19.6083 15.3663C19.6083 15.7747 20.3239 16.0083 20.6127 16.1102C21.0839 16.2714 21.5427 16.4822 21.9643 16.7549C22.5278 17.1224 22.8695 17.7155 22.8695 18.3915C22.9162 19.9315 21.3129 20.6538 19.9679 20.6232C19.2664 20.6232 18.5241 20.5322 17.8847 20.2265C17.8227 20.1893 17.7855 20.1273 17.7855 20.0529V18.5279C17.7855 18.4811 17.8631 18.3979 17.8971 18.4659C18.5385 18.8459 19.2781 19.0098 20.0175 19.0362C20.356 19.0531 20.9847 18.9983 20.9847 18.5403C20.9467 18.0849 20.2606 17.8851 19.9059 17.7716C18.867 17.4253 17.7731 16.7149 17.7731 15.5027C17.7731 14.0044 19.2239 13.3206 20.5383 13.3206C21.2079 13.3206 21.8275 13.3413 22.3859 13.6058C22.4743 13.6352 22.4851 13.7091 22.4851 13.7917V15.2175C22.4851 15.3066 22.3853 15.3535 22.3115 15.3043Z" fill="#31A8FF"/>
<path d="M16 28C15.5164 28 15.0576 27.814 14.7228 27.4669L4.5301 17.2755C3.8233 16.5688 3.8233 15.4281 4.5301 14.7214L14.7228 4.53003C15.4296 3.82332 16.5704 3.82332 17.2772 4.53003L27.4699 14.7214C28.1767 15.4281 28.1767 16.5688 27.4699 17.2755L17.2772 27.4669C16.9424 27.8016 16.4836 28 16 28ZM15.07 27.1197C15.5784 27.628 16.4092 27.628 16.9176 27.1197L27.1103 16.9283C27.6187 16.42 27.6187 15.5893 27.1103 15.081L16.9176 4.88958C16.4092 4.38125 15.5784 4.38125 15.07 4.88958L4.87729 15.081C4.3689 15.5893 4.3689 16.42 4.87729 16.9283L15.07 27.1197Z" fill="#31A8FF"/>
</svg>
