<svg width="32" height="32" viewBox="0 0 32 32" fill="none" xmlns="http://www.w3.org/2000/svg">
<path d="M2 12.1333C2 8.58633 2 6.81283 2.69029 5.45806C3.29749 4.26637 4.26637 3.29749 5.45806 2.69029C6.81283 2 8.58633 2 12.1333 2H19.8667C23.4137 2 25.1872 2 26.5419 2.69029C27.7336 3.29749 28.7025 4.26637 29.3097 5.45806C30 6.81283 30 8.58633 30 12.1333V19.8667C30 23.4137 30 25.1872 29.3097 26.5419C28.7025 27.7336 27.7336 28.7025 26.5419 29.3097C25.1872 30 23.4137 30 19.8667 30H12.1333C8.58633 30 6.81283 30 5.45806 29.3097C4.26637 28.7025 3.29749 27.7336 2.69029 26.5419C2 25.1872 2 23.4137 2 19.8667V12.1333Z" fill="#330000"/>
<path d="M15.5684 19.5963H11.2295L10.3467 22.409C10.3221 22.5135 10.2259 22.5875 10.1212 22.5823H7.9236C7.79827 22.5823 7.75444 22.5117 7.79211 22.3704L11.5488 11.2738C11.5863 11.1582 11.6239 11.0266 11.6615 10.8789C11.7106 10.6218 11.7358 10.3606 11.7366 10.0987C11.7259 10.0213 11.7939 9.95294 11.8681 9.96378H14.8546C14.9421 9.96378 14.9922 9.9959 15.0049 10.0601L19.2688 22.3897C19.3063 22.5182 19.2687 22.5824 19.156 22.5823H16.7142C16.6285 22.5921 16.5467 22.5334 16.5263 22.4475L15.5684 19.5963ZM11.9056 17.1689H14.8734C14.3858 15.5027 13.8355 13.8584 13.3896 12.1793C12.9084 13.8613 12.3834 15.5365 11.9056 17.1689Z" fill="#FF9A00"/>
<path d="M21.8042 12.0058C21.6127 12.0137 21.4216 11.98 21.2436 11.907C21.0656 11.834 20.9046 11.7232 20.7712 11.582C20.6381 11.4346 20.5348 11.2618 20.4671 11.0733C20.3994 10.8849 20.3686 10.6846 20.3767 10.4839C20.3699 10.2852 20.404 10.0873 20.4768 9.90305C20.5496 9.71881 20.6595 9.5524 20.7993 9.41468C20.9378 9.27839 21.1012 9.17161 21.2801 9.10052C21.459 9.02942 21.65 8.99543 21.8418 9.00049C22.2926 9.00049 22.6464 9.13856 22.9031 9.41468C23.0326 9.55818 23.1333 9.72648 23.1994 9.90995C23.2655 10.0934 23.2956 10.2885 23.2881 10.4839C23.296 10.6853 23.2643 10.8864 23.1949 11.075C23.1255 11.2636 23.0199 11.436 22.8843 11.582C22.7425 11.7253 22.5734 11.8369 22.3875 11.9099C22.2016 11.9828 22.003 12.0155 21.8042 12.0058ZM20.5082 22.3896V13.181C20.5082 13.0654 20.5581 13.0076 20.6584 13.0076H22.9688C23.0689 13.0076 23.119 13.0654 23.1191 13.181V22.3896C23.1191 22.5182 23.069 22.5824 22.9688 22.5823H20.6772C20.5646 22.5823 20.5082 22.5181 20.5082 22.3896Z" fill="#FF9A00"/>
</svg>
