<svg width="32" height="32" viewBox="0 0 32 32" fill="none" xmlns="http://www.w3.org/2000/svg">
<path d="M2 12.1333C2 8.58633 2 6.81283 2.69029 5.45806C3.29749 4.26637 4.26637 3.29749 5.45806 2.69029C6.81283 2 8.58633 2 12.1333 2H19.8667C23.4137 2 25.1872 2 26.5419 2.69029C27.7336 3.29749 28.7025 4.26637 29.3097 5.45806C30 6.81283 30 8.58633 30 12.1333V19.8667C30 23.4137 30 25.1872 29.3097 26.5419C28.7025 27.7336 27.7336 28.7025 26.5419 29.3097C25.1872 30 23.4137 30 19.8667 30H12.1333C8.58633 30 6.81283 30 5.45806 29.3097C4.26637 28.7025 3.29749 27.7336 2.69029 26.5419C2 25.1872 2 23.4137 2 19.8667V12.1333Z" fill="#013301"/>
<path d="M6.00065 22.4644V10.2119C5.99296 10.1324 6.05426 10.0605 6.13214 10.0578C6.31995 10.0452 6.59544 10.0355 6.9586 10.0289C7.32165 10.0226 7.74739 10.0162 8.23584 10.0096C8.72421 10.0033 9.24389 10.0001 9.79489 10C11.2975 10 12.5435 10.2633 13.5328 10.7899C14.4703 11.2663 15.246 12.0216 15.7586 12.9572C16.2531 13.8756 16.5004 14.9319 16.5005 16.1263C16.5148 16.9619 16.3844 17.7936 16.1154 18.5825C15.8802 19.2579 15.5234 19.882 15.0636 20.4223C14.6284 20.9283 14.1181 21.3606 13.5515 21.7035C12.9896 22.0433 12.3821 22.2964 11.7483 22.4548C11.1277 22.6132 10.4907 22.694 9.85123 22.6956H8.45184C7.95704 22.6956 7.49685 22.6924 7.07127 22.686C6.64545 22.6793 6.32613 22.6697 6.11333 22.6571C6.03819 22.6571 6.00063 22.5929 6.00065 22.4644ZM8.59272 12.3696V20.3453C8.96888 20.3453 9.34352 20.3843 9.71974 20.3838C10.2878 20.3914 10.8531 20.3002 11.3915 20.1141C11.8738 19.9461 12.3133 19.6696 12.6781 19.305C13.0451 18.9293 13.3272 18.4755 13.5046 17.9757C13.7066 17.4015 13.8052 16.7944 13.7957 16.1841C13.8072 15.6089 13.7116 15.0368 13.514 14.4984C13.3378 14.0339 13.0579 13.6183 12.6969 13.2847C12.3281 12.9505 11.892 12.7038 11.4196 12.5622C10.8921 12.4034 10.3446 12.3255 9.79488 12.3311C9.54423 12.3311 9.33448 12.3343 9.16563 12.3407C8.99656 12.3473 8.80559 12.357 8.59272 12.3696Z" fill="#33FF66"/>
<path d="M17.6485 22.4836V15.317C17.6485 15.0988 17.6454 14.8548 17.6391 14.585C17.6327 14.3153 17.6233 14.0584 17.6109 13.8144C17.5983 13.5705 17.5858 13.3779 17.5734 13.2364C17.5388 13.1456 17.6207 13.0757 17.7048 13.0823H19.6583C20.0107 13.0704 20.0702 13.5962 20.0904 13.8722C20.4535 13.5459 20.8744 13.2941 21.3301 13.1305C21.7831 12.9696 22.2593 12.8882 22.7388 12.8897C23.1121 12.8914 23.4829 12.9532 23.8376 13.0727C24.2471 13.207 24.6205 13.437 24.9286 13.7445C25.2366 14.0521 25.4708 14.4288 25.6127 14.8451C25.8005 15.3396 25.8944 15.9786 25.8944 16.7619V22.4836C25.8944 22.5992 25.8443 22.657 25.7441 22.657H23.4714C23.3635 22.6729 23.268 22.5749 23.2835 22.4643V16.9931C23.2947 16.6571 23.2371 16.3224 23.1145 16.0106C22.622 14.8282 21.021 15.0877 20.2594 15.8179V22.4836C20.2594 22.5992 20.2093 22.657 20.1091 22.657H17.8175C17.7205 22.6712 17.6346 22.5831 17.6485 22.4836Z" fill="#33FF66"/>
</svg>
