<svg width="32" height="32" viewBox="0 0 32 32" fill="none" xmlns="http://www.w3.org/2000/svg">
<path d="M16 2C8.27812 2 2 8.27812 2 16C2 23.7219 8.27812 30 16 30C23.7219 30 30 23.7219 30 16C30 8.27812 23.7219 2 16 2Z" fill="#FF5A5F"/>
<path d="M16 19.6867C15.0821 18.5322 14.5422 17.5201 14.3623 16.6542C14.1823 15.9506 14.2543 15.3914 14.5602 14.9765C14.8842 14.4894 15.3701 14.2549 16 14.2549C16.6299 14.2549 17.1158 14.4894 17.4398 14.9765C17.7457 15.3914 17.8177 15.9506 17.6378 16.6542C17.4398 17.5382 16.8999 18.5484 16 19.6867ZM21.0248 22.3566C19.4951 23.0241 17.9815 21.9597 16.6857 20.5165C18.8292 17.8268 19.2251 15.7342 18.3054 14.3794C17.7655 13.6037 16.9917 13.2248 16 13.2248C14.0023 13.2248 12.9027 14.9206 13.3346 16.8887C13.5866 17.9531 14.2525 19.1636 15.3143 20.5165C14.5179 21.4012 13.473 22.4047 12.2188 22.519C10.4011 22.7896 8.97749 21.0217 9.62539 19.1978L14.2345 9.63307C14.6279 8.91403 15.1134 8.29812 15.9982 8.29812C16.6461 8.29812 17.15 8.67696 17.366 8.98363L22.371 19.1978C22.8614 20.432 22.2395 21.8308 21.0248 22.3566ZM23.3465 18.837L19.0613 9.90367C18.2515 8.244 17.6755 7.25 16 7.25C14.3443 7.25 13.6406 8.40455 12.9207 9.90367L8.65354 18.837C7.73568 21.3644 9.62539 23.5833 11.9128 23.5833C12.0568 23.5833 12.1998 23.5653 12.3448 23.5653C13.5326 23.421 14.7582 22.6633 16 21.3085C17.2418 22.6615 18.4674 23.421 19.6552 23.5653C19.8003 23.5653 19.9432 23.5833 20.0872 23.5833C22.3746 23.5851 24.2643 21.3644 23.3465 18.837Z" fill="white"/>
</svg>
