<svg width="32" height="32" viewBox="0 0 32 32" fill="none" xmlns="http://www.w3.org/2000/svg">
<rect x="2" y="2" width="28" height="28" fill="#1271CD"/>
<path d="M8.52393 16.5598L13.0025 6.5498H17.2695L18.7859 9.94481V6.5498H24.1108L24.9924 9.1748L25.9093 6.5498H30V7.73987H26.7558L25.0278 12.4999L23.2293 7.73987H19.9144V15.4049L16.5291 7.73987H13.7432L10.3225 15.4049H12.6852L13.2847 13.8999H16.8817L17.5165 15.4049H19.9144H22.0303V10.0849L24.0051 15.4049H25.9094L27.9548 10.0849V15.4049H30V16.5599H27.2495L24.9573 19.0099L22.7003 16.5599H19.9497H13.32V24.2599H19.9497H22.7003L24.9573 21.8099L27.2495 24.2599H30V25.4148H26.6851L24.9924 23.5248L23.194 25.4148H12.0856V16.5598H8.52393Z" fill="white"/>
<path d="M30 24.2599V22.6832L27.9194 20.4448L30 18.2651V16.5599L26.3326 20.4449L30 24.2599Z" fill="white"/>
<path d="M19.9497 24.2599V22.5449H15.4006V21.3199H19.8087V19.6049H15.4006V18.3799H19.9497V16.5599L23.6172 20.4449L19.9497 24.2599Z" fill="white"/>
<path d="M15.1185 9.62987L14.0253 12.1849H16.1764L15.1185 9.62987Z" fill="white"/>
</svg>
