<svg width="32" height="32" viewBox="0 0 32 32" fill="none" xmlns="http://www.w3.org/2000/svg">
<path d="M2 12.1333C2 8.58633 2 6.81283 2.69029 5.45806C3.29749 4.26637 4.26637 3.29749 5.45806 2.69029C6.81283 2 8.58633 2 12.1333 2H19.8667C23.4137 2 25.1872 2 26.5419 2.69029C27.7336 3.29749 28.7025 4.26637 29.3097 5.45806C30 6.81283 30 8.58633 30 12.1333V19.8667C30 23.4137 30 25.1872 29.3097 26.5419C28.7025 27.7336 27.7336 28.7025 26.5419 29.3097C25.1872 30 23.4137 30 19.8667 30H12.1333C8.58633 30 6.81283 30 5.45806 29.3097C4.26637 28.7025 3.29749 27.7336 2.69029 26.5419C2 25.1872 2 23.4137 2 19.8667V12.1333Z" fill="#00005B"/>
<path d="M12.9607 19.8809H8.52632L7.62409 22.7658C7.59904 22.873 7.5007 22.9489 7.39372 22.9437H5.14772C5.01964 22.9437 4.97485 22.8712 5.01335 22.7263L8.85264 11.3448C8.89107 11.2263 8.92948 11.0913 8.96786 10.9397C9.01808 10.6761 9.04379 10.4082 9.04465 10.1395C9.03365 10.0601 9.10315 9.99004 9.17902 10.0012H12.2312C12.3207 10.0012 12.3719 10.0341 12.3848 10.1L16.7425 22.7461C16.7809 22.8779 16.7425 22.9438 16.6273 22.9437H14.1317C14.0442 22.9537 13.9606 22.8934 13.9398 22.8054L12.9607 19.8809ZM9.21739 17.3912H12.2505C11.7521 15.6823 11.1898 13.9958 10.734 12.2735C10.2422 13.9987 9.70562 15.7169 9.21739 17.3912Z" fill="#9999FF"/>
<path d="M25.9019 13.0852V20.6088C25.9019 21.125 25.898 21.6458 25.9499 22.1599C25.9691 22.351 25.985 22.4655 25.9979 22.597C26.0105 22.7026 25.9659 22.7551 25.8636 22.7551H23.8095C23.7127 22.7656 23.6179 22.7087 23.5791 22.6168C23.5293 22.4347 23.4856 22.2413 23.4831 22.0513C22.75 22.7247 21.7813 22.992 20.8148 22.9997C18.7227 23.0256 17.5428 21.2673 17.5898 19.1861V13.105C17.5772 13.0142 17.6552 12.9339 17.7434 12.9469H20.0247C20.1128 12.934 20.1908 13.0143 20.1783 13.105V18.87C20.1783 19.9232 20.6936 20.6088 21.7555 20.6088C22.3139 20.6159 22.8683 20.3864 23.3181 20.0555V13.0852C23.3181 12.9932 23.3757 12.9469 23.4909 12.9469H25.7676C25.8446 12.9357 25.9128 13.0059 25.9019 13.0852Z" fill="#9999FF"/>
</svg>
