<svg width="32" height="32" viewBox="0 0 32 32" fill="none" xmlns="http://www.w3.org/2000/svg">
<path fill-rule="evenodd" clip-rule="evenodd" d="M4.87031 22.3216C4.6221 22.7429 4.34333 23.2317 4.10657 23.6212C3.89465 23.9939 4.00842 24.4745 4.36242 24.7021L9.32677 27.8815C9.50103 27.9935 9.7112 28.0279 9.91009 27.9771C10.109 27.9263 10.2799 27.7945 10.3846 27.6113C10.5831 27.2655 10.839 26.8164 11.1178 26.3355C13.0844 22.9575 15.0625 23.3708 18.6292 25.1433L23.5515 27.5795C23.738 27.6718 23.9524 27.6817 24.1459 27.6068C24.3394 27.5319 24.4956 27.3787 24.5788 27.182L26.9426 21.6182C27.1096 21.2208 26.9396 20.7574 26.5607 20.5769C25.522 20.0682 23.4561 19.0548 21.5963 18.1209C14.9059 14.7388 9.21985 14.9574 4.87031 22.3216Z" fill="url(#paint0_linear_1_13558)"/>
<path fill-rule="evenodd" clip-rule="evenodd" d="M27.1297 9.69551C27.3779 9.27424 27.6567 8.78541 27.8935 8.39594C28.1054 8.02324 27.9916 7.54258 27.6376 7.31496L22.6733 4.13559C22.4976 4.01245 22.2806 3.97076 22.0743 4.0205C21.8679 4.07023 21.6907 4.20691 21.5849 4.39789C21.3863 4.74365 21.1305 5.19273 20.8517 5.67361C18.8851 9.05169 16.907 8.63837 13.3403 6.86587L8.43321 4.44161C8.24678 4.34926 8.03237 4.3394 7.83885 4.41427C7.64532 4.48914 7.48917 4.64237 7.40597 4.83903L5.04218 10.4029C4.87517 10.8003 5.0451 11.2636 5.42405 11.4442C6.46275 11.9529 8.52868 12.9663 10.3884 13.9002C17.0941 17.2783 22.7802 17.0518 27.1297 9.69551Z" fill="url(#paint1_linear_1_13558)"/>
<defs>
<linearGradient id="paint0_linear_1_13558" x1="26.8089" y1="29.5229" x2="20.8666" y2="16.4236" gradientUnits="userSpaceOnUse">
<stop offset="0.18" stop-color="#0052CC"/>
<stop offset="1" stop-color="#2684FF"/>
</linearGradient>
<linearGradient id="paint1_linear_1_13558" x1="5.19111" y1="2.49027" x2="11.1428" y2="15.5956" gradientUnits="userSpaceOnUse">
<stop offset="0.18" stop-color="#0052CC"/>
<stop offset="1" stop-color="#2684FF"/>
</linearGradient>
</defs>
</svg>
