<svg width="32" height="32" viewBox="0 0 32 32" fill="none" xmlns="http://www.w3.org/2000/svg">
<path d="M2 11.9556C2 8.47078 2 6.7284 2.67818 5.39739C3.27473 4.22661 4.22661 3.27473 5.39739 2.67818C6.7284 2 8.47078 2 11.9556 2H20.0444C23.5292 2 25.2716 2 26.6026 2.67818C27.7734 3.27473 28.7253 4.22661 29.3218 5.39739C30 6.7284 30 8.47078 30 11.9556V20.0444C30 23.5292 30 25.2716 29.3218 26.6026C28.7253 27.7734 27.7734 28.7253 26.6026 29.3218C25.2716 30 23.5292 30 20.0444 30H11.9556C8.47078 30 6.7284 30 5.39739 29.3218C4.22661 28.7253 3.27473 27.7734 2.67818 26.6026C2 25.2716 2 23.5292 2 20.0444V11.9556Z" fill="white"/>
<path d="M24.4925 6H21.2412V10.7112H25.9987V7.32845C26 7.32845 25.7636 6.12848 24.4925 6Z" fill="#1967D2"/>
<path d="M21.2425 25.9781V25.9897V25.9999L26 21.2887H25.9574L21.2425 25.9781Z" fill="#1967D2"/>
<path d="M25.9996 21.2885V21.2463L25.9574 21.2885H25.9996Z" fill="#FBBC05"/>
<path d="M26 10.7113H21.2425V21.2464H26V10.7113Z" fill="#FBBC05"/>
<path d="M25.9574 21.2887H21.2425V25.9781L25.9574 21.2887Z" fill="#EA4335"/>
<path d="M21.2425 21.2885H25.9574L26 21.2463H21.2425V21.2885Z" fill="#EA4335"/>
<path d="M21.2309 25.9897H21.2424V25.9782L21.2309 25.9897Z" fill="#34A853"/>
<path d="M10.6503 21.2463V25.9897H21.2309L21.2425 21.2463H10.6503Z" fill="#34A853"/>
<path d="M21.2424 21.2887V21.2463L21.2309 25.9897L21.2424 25.9781V21.2887Z" fill="#34A853"/>
<path d="M6 21.2463V24.5443C6.04263 25.6145 7.20002 25.9897 7.20002 25.9897H10.6503V21.2463H6Z" fill="#188038"/>
<path d="M10.6503 10.7114H21.2425V6.00011H7.33437C7.33437 6.00011 6.08525 6.12859 6 7.45576V21.2465H10.6503V10.7114Z" fill="#4285F4"/>
<path d="M14.1156 19.1139C13.8733 19.1139 13.6396 19.0823 13.4146 19.0192C13.1953 18.9561 12.9934 18.8614 12.8087 18.7351C12.6241 18.6032 12.4597 18.4396 12.3154 18.2445C12.177 18.0494 12.0702 17.8227 11.9952 17.5645L13.0597 17.1427C13.1347 17.4296 13.2617 17.6477 13.4405 17.7969C13.6194 17.9403 13.8444 18.0121 14.1156 18.0121C14.2368 18.0121 14.3522 17.9949 14.4618 17.9604C14.5714 17.9203 14.6666 17.8657 14.7474 17.7969C14.8282 17.728 14.8916 17.6477 14.9378 17.5559C14.9897 17.4583 15.0157 17.3493 15.0157 17.2288C15.0157 16.9763 14.9205 16.7783 14.7301 16.6348C14.5454 16.4913 14.2887 16.4196 13.9598 16.4196H13.4492V15.3953H13.9165C14.0319 15.3953 14.1444 15.3809 14.2541 15.3522C14.3637 15.3235 14.4589 15.2805 14.5397 15.2231C14.6262 15.16 14.6926 15.0825 14.7387 14.9907C14.7907 14.8931 14.8166 14.7812 14.8166 14.655C14.8166 14.4599 14.7474 14.3021 14.6089 14.1815C14.4704 14.0553 14.2829 13.9922 14.0464 13.9922C13.7925 13.9922 13.5963 14.061 13.4578 14.1988C13.3251 14.3307 13.2328 14.48 13.1809 14.6464L12.1423 14.2246C12.1943 14.0811 12.2722 13.9348 12.376 13.7856C12.4799 13.6306 12.6097 13.4929 12.7655 13.3724C12.927 13.2461 13.1145 13.1457 13.328 13.0711C13.5415 12.9908 13.7867 12.9506 14.0637 12.9506C14.3464 12.9506 14.6031 12.9908 14.8339 13.0711C15.0705 13.1515 15.2724 13.2634 15.4398 13.4068C15.6071 13.5446 15.7369 13.711 15.8292 13.9061C15.9215 14.0955 15.9677 14.3021 15.9677 14.5259C15.9677 14.698 15.9446 14.853 15.8985 14.9907C15.8581 15.1284 15.8033 15.2518 15.734 15.3608C15.6648 15.4699 15.584 15.5646 15.4917 15.6449C15.4051 15.7195 15.3157 15.7798 15.2234 15.8257V15.8945C15.5003 16.0036 15.7282 16.1786 15.9071 16.4196C16.0917 16.6606 16.1841 16.9648 16.1841 17.3321C16.1841 17.5903 16.135 17.8284 16.0369 18.0465C15.9388 18.2588 15.7975 18.4453 15.6129 18.606C15.434 18.7667 15.2176 18.8901 14.9638 18.9762C14.7099 19.068 14.4272 19.1139 14.1156 19.1139Z" fill="#4285F4"/>
<path d="M18.2508 18.9762V14.414L17.2036 14.853L16.7882 13.8975L18.5278 13.0883H19.3846V18.9762H18.2508Z" fill="#4285F4"/>
</svg>
