<svg width="32" height="32" viewBox="0 0 32 32" fill="none" xmlns="http://www.w3.org/2000/svg">
<path d="M2 11.9556C2 8.47078 2 6.7284 2.67818 5.39739C3.27473 4.22661 4.22661 3.27473 5.39739 2.67818C6.7284 2 8.47078 2 11.9556 2H20.0444C23.5292 2 25.2716 2 26.6026 2.67818C27.7734 3.27473 28.7253 4.22661 29.3218 5.39739C30 6.7284 30 8.47078 30 11.9556V20.0444C30 23.5292 30 25.2716 29.3218 26.6026C28.7253 27.7734 27.7734 28.7253 26.6026 29.3218C25.2716 30 23.5292 30 20.0444 30H11.9556C8.47078 30 6.7284 30 5.39739 29.3218C4.22661 28.7253 3.27473 27.7734 2.67818 26.6026C2 25.2716 2 23.5292 2 20.0444V11.9556Z" fill="white"/>
<path fill-rule="evenodd" clip-rule="evenodd" d="M24 12.8116L23.9999 12.8541C23.9998 12.872 23.9996 12.8899 23.9994 12.9078C23.9998 12.9287 24 12.9498 24 12.971C24 16.3073 21.4007 19.2604 19.6614 21.2367C19.1567 21.8101 18.7244 22.3013 18.449 22.6957C17.4694 24.0986 16.9524 25.6184 16.8163 26.2029C16.8163 26.6431 16.4509 27 16 27C15.5491 27 15.1837 26.6431 15.1837 26.2029C15.0476 25.6184 14.5306 24.0986 13.551 22.6957C13.2756 22.3013 12.8433 21.8101 12.3386 21.2367C10.5993 19.2604 8 16.3073 8 12.971C8 12.9498 8.0002 12.9287 8.0006 12.9078C8.0002 12.8758 8 12.8437 8 12.8116C8 8.49736 11.5817 5 16 5C20.4183 5 24 8.49736 24 12.8116ZM16 15.6812C17.7132 15.6812 19.102 14.325 19.102 12.6522C19.102 10.9793 17.7132 9.62319 16 9.62319C14.2868 9.62319 12.898 10.9793 12.898 12.6522C12.898 14.325 14.2868 15.6812 16 15.6812Z" fill="#34A851"/>
<path d="M23.1052 9.21856C22.1256 7.37546 20.4159 5.96177 18.3502 5.34277L13.7556 10.5615C14.3205 9.98352 15.1172 9.62346 16 9.62346C17.7132 9.62346 19.102 10.9796 19.102 12.6524C19.102 13.3349 18.8709 13.9646 18.4809 14.4711L23.1052 9.21856Z" fill="#4285F5"/>
<path d="M12.4314 21.3422C12.4008 21.3074 12.3698 21.2723 12.3386 21.2368C11.1921 19.9342 9.67195 18.207 8.76889 16.2255L13.5442 10.8015C13.139 11.3134 12.898 11.9553 12.898 12.6523C12.898 14.3252 14.2868 15.6813 16 15.6813C16.8678 15.6813 17.6524 15.3333 18.2154 14.7725L12.4314 21.3422Z" fill="#F9BB0E"/>
<path d="M9.89288 7.76567C8.71207 9.12689 8 10.8881 8 12.8117C8 12.8438 8.0002 12.8759 8.0006 12.9079C8.0002 12.9288 8 12.9499 8 12.9712C8 14.1083 8.30196 15.2009 8.76889 16.2255L13.5362 10.8107L9.89288 7.76567Z" fill="#E74335"/>
<path d="M18.3502 5.34254C17.6071 5.11988 16.8179 5 16 5C13.5518 5 11.3604 6.07387 9.89291 7.76553L13.5362 10.8105L13.5441 10.8015C13.6104 10.7178 13.6811 10.6375 13.7558 10.5611L18.3502 5.34254Z" fill="#1A73E6"/>
</svg>
