<svg width="32" height="32" viewBox="0 0 32 32" fill="none" xmlns="http://www.w3.org/2000/svg">
<circle cx="16" cy="16" r="14" fill="#F8591A"/>
<path d="M22.4486 18.2072C21.6171 17.8564 20.924 17.1435 20.4072 16.4214C19.8142 15.5923 19.2068 14.7775 18.5423 14.0047C17.9174 13.2788 17.2529 12.5832 16.5311 11.9547C15.8109 11.327 15.027 10.73 14.1637 10.3154C13.585 10.0363 12.9888 9.82649 12.3719 9.64951C12.3019 9.63006 12.1135 9.54452 12.0579 9.63046C12.0237 9.6837 12.0499 9.78315 12.057 9.84198C12.0722 9.96999 12.0873 10.0976 12.1032 10.2251C12.2876 11.7563 12.3576 13.3726 11.8822 14.8594C11.627 15.6607 11.162 16.393 10.5419 16.9606C10.0276 17.4305 9.29382 17.9064 8.56488 17.8724C6.45605 17.7833 7.40244 14.303 7.80012 13.1309C8.99459 9.66855 12.3531 7.2705 16 7.2705C20.7521 7.2705 24.7003 11.2809 24.6696 16.0001C24.6585 17.4025 24.2086 18.9495 22.4486 18.2072ZM26.5664 12.9437C25.242 8.35633 21.0147 5 16 5C10.9861 5 6.75799 8.35633 5.43356 12.9437C4.96081 14.5823 4.87562 16.3183 5.18452 17.9948C6.12295 23.1182 10.6067 27 16 27C21.3942 27 25.8771 23.1182 26.817 17.9948C27.1246 16.318 27.0379 14.5825 26.5664 12.9437Z" fill="white"/>
</svg>
