<svg width="32" height="32" viewBox="0 0 32 32" fill="none" xmlns="http://www.w3.org/2000/svg">
<path d="M31 22.5651C31 25.0095 28.9095 27 26.3423 27H1V9.43492C1 6.99048 3.09046 5 5.6577 5H31V22.5651Z" fill="white"/>
<path d="M24.4535 6.48431C22.6198 6.48431 21.1161 7.8986 21.1161 9.66209V12.9621H25.8288C25.9389 12.9621 26.0672 12.9621 26.1589 12.9796C27.2225 13.0319 28.011 13.5557 28.011 14.4637C28.011 15.1796 27.4792 15.7907 26.489 15.9129V15.9478C27.5709 16.0176 28.3961 16.5938 28.3961 17.4843C28.3961 18.4446 27.4792 19.0732 26.2689 19.0732H21.0978V25.5335H25.9939C27.8276 25.5335 29.3313 24.1192 29.3313 22.3557V6.48431H24.4535Z" fill="url(#paint0_linear_30_758)"/>
<path d="M22.7482 18.0605H24.6736C24.7011 18.0605 24.7469 18.0561 24.7928 18.0518C24.8386 18.0474 24.8845 18.043 24.912 18.043C25.2787 17.9732 25.5905 17.6589 25.5905 17.2224C25.5905 16.8034 25.2787 16.4891 24.912 16.4018C24.857 16.3843 24.7469 16.3843 24.6736 16.3843H22.7482V18.0605Z" fill="url(#paint1_linear_30_758)"/>
<path d="M24.6736 13.9223C25.0403 13.9747 25.3521 14.2541 25.3521 14.6731C25.3521 15.0922 25.0403 15.3715 24.6736 15.4239C24.6553 15.4414 24.5452 15.4414 24.4902 15.4414H22.7482V13.9049H24.4902C24.5205 13.9049 24.5619 13.9101 24.5991 13.9149C24.6295 13.9188 24.6571 13.9223 24.6736 13.9223Z" fill="url(#paint2_linear_30_758)"/>
<path d="M6.00611 6.48431C4.17236 6.48431 2.6687 7.8986 2.6687 9.66209V17.5018C3.60391 17.9383 4.57579 18.2176 5.54767 18.2176C6.70293 18.2176 7.3264 17.5542 7.3264 16.6462V12.9446H10.187V16.6288C10.187 18.0605 9.25183 19.2303 6.07945 19.2303C4.15403 19.2303 2.65036 18.8288 2.65036 18.8288V25.5161H7.54645C9.38019 25.5161 10.8839 24.1018 10.8839 22.3383V6.48431H6.00611Z" fill="url(#paint3_linear_30_758)"/>
<path d="M15.2298 6.48431C13.3961 6.48431 11.8924 7.8986 11.8924 9.66209V13.8176C12.7359 13.1367 14.2029 12.7002 16.5685 12.8049C17.8337 12.8573 19.1907 13.1891 19.1907 13.1891V14.5335C18.5122 14.2018 17.7054 13.9049 16.6602 13.8351C14.8631 13.7129 13.7812 14.551 13.7812 16.0176C13.7812 17.5018 14.8631 18.3399 16.6602 18.2002C17.7054 18.1303 18.5122 17.8161 19.1907 17.5018V18.8462C19.1907 18.8462 17.8521 19.178 16.5685 19.2303C14.2029 19.3351 12.7359 18.8986 11.8924 18.2176V25.551H16.7885C18.6223 25.551 20.1259 24.1367 20.1259 22.3732V6.48431H15.2298Z" fill="url(#paint4_linear_30_758)"/>
<defs>
<linearGradient id="paint0_linear_30_758" x1="21.1125" y1="14.6705" x2="29.3532" y2="14.6705" gradientUnits="userSpaceOnUse">
<stop stop-color="#007940"/>
<stop offset="0.2285" stop-color="#00873F"/>
<stop offset="0.7433" stop-color="#40A737"/>
<stop offset="1" stop-color="#5CB531"/>
</linearGradient>
<linearGradient id="paint1_linear_30_758" x1="21.1125" y1="14.6705" x2="29.3532" y2="14.6705" gradientUnits="userSpaceOnUse">
<stop stop-color="#007940"/>
<stop offset="0.2285" stop-color="#00873F"/>
<stop offset="0.7433" stop-color="#40A737"/>
<stop offset="1" stop-color="#5CB531"/>
</linearGradient>
<linearGradient id="paint2_linear_30_758" x1="21.1125" y1="14.6705" x2="29.3532" y2="14.6705" gradientUnits="userSpaceOnUse">
<stop stop-color="#007940"/>
<stop offset="0.2285" stop-color="#00873F"/>
<stop offset="0.7433" stop-color="#40A737"/>
<stop offset="1" stop-color="#5CB531"/>
</linearGradient>
<linearGradient id="paint3_linear_30_758" x1="2.66453" y1="16.001" x2="11.0327" y2="16.001" gradientUnits="userSpaceOnUse">
<stop stop-color="#1F286F"/>
<stop offset="0.4751" stop-color="#004E94"/>
<stop offset="0.8261" stop-color="#0066B1"/>
<stop offset="1" stop-color="#006FBC"/>
</linearGradient>
<linearGradient id="paint4_linear_30_758" x1="11.8448" y1="16.001" x2="19.9719" y2="16.001" gradientUnits="userSpaceOnUse">
<stop stop-color="#6C2C2F"/>
<stop offset="0.1735" stop-color="#882730"/>
<stop offset="0.5731" stop-color="#BE1833"/>
<stop offset="0.8585" stop-color="#DC0436"/>
<stop offset="1" stop-color="#E60039"/>
</linearGradient>
</defs>
</svg>
