<svg width="32" height="32" viewBox="0 0 32 32" fill="none" xmlns="http://www.w3.org/2000/svg">
<path d="M15.9947 3C8.26662 3 2 7.97177 2 14.1072C2 18.074 4.6181 21.5489 8.56102 23.5218L7.14157 28.6258C7.14157 28.6258 7.11528 28.8638 7.26774 28.9537C7.4202 29.0436 7.60421 28.9749 7.60421 28.9749C8.04581 28.9114 12.7037 25.6163 13.5186 25.045C14.3229 25.1614 15.1588 25.2196 16.0053 25.2196C23.7334 25.2196 30 20.2478 30 14.1124C30 7.97706 23.7229 3 15.9947 3Z" fill="black"/>
<path d="M8.25611 17.9787C7.80925 17.9787 7.4465 17.6296 7.4465 17.2012V12.3722H6.18476C5.74841 12.3722 5.39618 12.0178 5.39618 11.5788C5.39618 11.1398 5.75367 10.7855 6.18476 10.7855H10.3222C10.7586 10.7855 11.1108 11.1398 11.1108 11.5788C11.1108 12.0178 10.7533 12.3722 10.3222 12.3722H9.06047V17.2012C9.06047 17.6243 8.69246 17.9787 8.25085 17.9787H8.25611ZM15.3376 17.9681C15.0011 17.9681 14.7435 17.8306 14.6647 17.6084L14.2651 16.5506H11.8047L11.4052 17.6084C11.3263 17.8306 11.0687 17.9681 10.7323 17.9681C10.5535 17.9681 10.38 17.9311 10.2171 17.8623C9.99625 17.7565 9.78071 17.4762 10.0278 16.7093L11.9572 11.5947C12.0939 11.2033 12.5092 10.8013 13.0349 10.7908C13.5607 10.7802 13.9812 11.2033 14.1127 11.5947L16.0421 16.7093C16.2892 17.4762 16.0736 17.7671 15.8528 17.8623C15.6951 17.9364 15.5163 17.9681 15.3376 17.9681ZM13.8393 15.112L13.0349 12.8059L12.2306 15.112H13.8393ZM17.3406 17.8623C16.92 17.8623 16.5678 17.5291 16.5678 17.1218V11.5947C16.5678 11.1451 16.9358 10.7802 17.3932 10.7802C17.8506 10.7802 18.2186 11.1504 18.2186 11.5947V16.3655H19.9324C20.353 16.3655 20.7052 16.6987 20.7052 17.106C20.7052 17.5132 20.3583 17.8464 19.9324 17.8464L17.3406 17.8623ZM21.0154 17.1536V11.6C21.0154 11.1504 21.3834 10.7855 21.825 10.7855C22.2666 10.7855 22.6346 11.1557 22.6346 11.6V13.3454L24.8952 11.0711C25.1441 10.8207 25.6145 10.8427 25.8994 11.1293C26.167 11.3985 26.2365 11.8535 25.9572 12.1395L24.1067 13.9907L26.0939 16.6352C26.3609 16.9791 26.2961 17.5147 25.9362 17.7671C25.5813 18.0316 25.06 17.9434 24.8059 17.6084L22.9133 15.0855L22.6346 15.3658V17.1377C22.6346 18.1931 21.0154 18.2337 21.0154 17.1536Z" fill="#FFE812"/>
</svg>
