<svg width="32" height="32" viewBox="0 0 32 32" fill="none" xmlns="http://www.w3.org/2000/svg">
<path d="M30 14.4979C30 8.15789 23.7199 2.99997 15.9999 2.99997C8.28094 2.99997 2 8.15789 2 14.4979C2 20.1816 6.98063 24.9416 13.7084 25.8418C14.1644 25.9412 14.7849 26.146 14.9419 26.5403C15.0831 26.8986 15.0342 27.4598 14.987 27.8215C14.987 27.8215 14.8227 28.8213 14.7873 29.0343C14.7264 29.3925 14.5061 30.4353 15.9999 29.7981C17.4942 29.1609 24.0626 24.9935 26.9998 21.572C29.0287 19.3203 30 17.0353 30 14.4979Z" fill="#2CCF54"/>
<path d="M13.1555 11.4244H12.1735C12.0229 11.4244 11.9005 11.5478 11.9005 11.6995V17.866C11.9005 18.0179 12.0229 18.1411 12.1735 18.1411H13.1555C13.306 18.1411 13.4281 18.0179 13.4281 17.866V11.6995C13.4281 11.5478 13.306 11.4244 13.1555 11.4244Z" fill="white"/>
<path d="M19.9146 11.4244H18.9326C18.7821 11.4244 18.66 11.5478 18.66 11.6995V15.3631L15.8645 11.5467C15.8128 11.4683 15.7289 11.4295 15.6374 11.4244H14.6557C14.5051 11.4244 14.3828 11.5478 14.3828 11.6995V17.866C14.3828 18.0179 14.5051 18.1411 14.6557 18.1411H15.6374C15.7883 18.1411 15.9104 18.0179 15.9104 17.866V14.2035L18.7093 18.0247C18.7596 18.0967 18.8449 18.1411 18.9326 18.1411H19.9146C20.0655 18.1411 20.1873 18.0179 20.1873 17.866V11.6995C20.1873 11.5478 20.0655 11.4244 19.9146 11.4244Z" fill="white"/>
<path d="M10.7883 16.597H8.12004V11.6999C8.12004 11.5477 7.99793 11.4242 7.84764 11.4242H6.86536C6.7148 11.4242 6.59268 11.5477 6.59268 11.6999V17.8653C6.59268 18.015 6.71426 18.1412 6.86509 18.1412H10.7883C10.9389 18.1412 11.0604 18.0175 11.0604 17.8653V16.8727C11.0604 16.7205 10.9389 16.597 10.7883 16.597Z" fill="white"/>
<path d="M25.3376 12.9684C25.4882 12.9684 25.6097 12.8453 25.6097 12.6928V11.7001C25.6097 11.5479 25.4882 11.4242 25.3376 11.4242H21.4147C21.264 11.4242 21.142 11.5502 21.142 11.6999V17.8656C21.142 18.0148 21.2637 18.1412 21.4141 18.1412H25.3376C25.4882 18.1412 25.6097 18.0175 25.6097 17.8656V16.8727C25.6097 16.7207 25.4882 16.597 25.3376 16.597H22.6696V15.5547H25.3376C25.4882 15.5547 25.6097 15.4313 25.6097 15.2791V14.2864C25.6097 14.1342 25.4882 14.0105 25.3376 14.0105H22.6696V12.9684H25.3376Z" fill="white"/>
</svg>
