<svg width="32" height="36" viewBox="0 0 32 36" fill="none" xmlns="http://www.w3.org/2000/svg">
<path d="M30 24.9375C30 15.75 26.5 9.1875 22 9.1875C18.5 9.1875 16 14.4375 16 14.4375C14 18.375 14 25.5938 17 17.7188C17 17.7188 19.5 12.4688 22 12.4688C25.5 12.4688 27.3443 20.3438 27.3443 24.9375C27.3443 26.25 27 28.875 25 28.875V32.8125C27 32.8125 30 30.8438 30 24.9375Z" fill="url(#paint0_radial_767_192)"/>
<path d="M10 9.1875V13.125C6.8 13.65 5 20.3438 5 24.9375C5 26.25 5.5 28.875 7 28.875C9.5 28.875 12.3747 21.6299 15 16.3309C16.3937 13.5178 17.7809 15.9332 16.7231 18.375C14.2167 24.1607 11.707 32.8125 7 32.8125C5 32.8125 2 30.8438 2 24.9375C2 13.125 7.5 9.1875 10 9.1875Z" fill="url(#paint1_radial_767_192)"/>
<path d="M25 28.875C21.5 28.875 17.5 9.1875 10 9.1875V13.125C16 13.125 18.5 32.8125 25 32.8125V28.875Z" fill="#0768E1"/>
<defs>
<radialGradient id="paint0_radial_767_192" cx="0" cy="0" r="1" gradientUnits="userSpaceOnUse" gradientTransform="translate(25 31.5) rotate(-98.6641) scale(23.2339 13.994)">
<stop stop-color="#0768E1"/>
<stop offset="1" stop-color="#0082FB"/>
</radialGradient>
<radialGradient id="paint1_radial_767_192" cx="0" cy="0" r="1" gradientUnits="userSpaceOnUse" gradientTransform="translate(10 11.8125) rotate(147.995) scale(12.3821 7.51936)">
<stop stop-color="#0768E1"/>
<stop offset="1" stop-color="#0082FB"/>
</radialGradient>
</defs>
</svg>
