<svg width="111" height="44" viewBox="0 0 111 44" fill="none" xmlns="http://www.w3.org/2000/svg">
<rect width="111" height="48" rx="5" fill="#AAE296"/>
<path d="M65.184 18.576V27.216H64.8L60.096 18.576H57.392V30H59.216V21.36H59.6L64.304 30H67.008V18.576H65.184ZM72.1826 28.256V24.976H77.1586V23.264H72.1826V20.32H78.4706V18.576H70.2626V30H78.6786V28.256H72.1826ZM85.8655 22.24L84.1215 27.76H83.7375L82.6495 18.576H80.7935L82.1855 30H85.0975L86.9215 24.064H87.3055L89.1135 30H92.0255L93.4335 18.576H91.6095L90.5055 27.76H90.1215L88.3615 22.24H85.8655Z" fill="#433D3D"/>
</svg>
