<svg width="32" height="26" viewBox="0 0 32 26" fill="none" xmlns="http://www.w3.org/2000/svg">
<path d="M0.69116 18.9548C-0.506476 19.7935 -0.284724 21.2384 2.44769 22.1419C5.18011 23.0455 8.35603 23.2323 11.1505 22.729C11.0707 22.729 11.3102 22.729 11.1505 22.729V19.8774L8.43588 20.8C7.39792 21.1355 6.35997 21.2194 5.32202 20.9677C4.5236 20.7161 4.68328 20.2129 5.64139 19.7935L11.1505 17.7806V14.6774L3.48565 17.4452C2.52754 17.7806 1.56943 18.2839 0.69116 18.9548ZM19.2146 6.37419V14.5097C22.4881 16.1871 25.0431 14.5097 25.0431 10.1484C25.0431 5.70323 23.5261 3.69032 19.1348 2.09677C16.8193 1.25806 14.4241 0.503226 12.0288 0V24.2387L17.6178 26V5.61935C17.6178 4.69677 17.6178 4.02581 18.2565 4.27742C19.1348 4.52903 19.2146 5.45161 19.2146 6.37419ZM29.5941 17.0258C27.2787 16.1871 24.8036 15.8516 22.4083 16.1032C21.0779 16.1906 19.8294 16.5869 18.5759 17.0258V20.2968L23.7656 18.2839C24.8036 17.9484 25.8415 17.8645 26.8795 18.1161C27.6779 18.3677 27.5182 18.871 26.5601 19.2903L18.5759 22.3935V25.5806L29.5941 21.3032C30.3925 20.9677 31.1111 20.5484 31.7499 19.8774C32.3088 19.0387 32.0692 17.8645 29.5941 17.0258Z" fill="#0070D1"/>
</svg>
