<svg width="32" height="32" viewBox="0 0 32 32" fill="none" xmlns="http://www.w3.org/2000/svg">
<path d="M16 2C8.27812 2 2 8.27812 2 16C2 23.7219 8.27812 30 16 30C23.7219 30 30 23.7219 30 16C30 8.27812 23.7219 2 16 2Z" fill="white"/>
<path d="M16.3195 4.18742C16.1796 3.93753 15.8204 3.93753 15.6805 4.18742L11.9636 10.8234C11.9114 10.9165 11.8213 10.9822 11.7168 11.0035L4.2939 12.5106C4.0147 12.5673 3.90408 12.9075 4.09639 13.118L9.22323 18.7299C9.29486 18.8083 9.32904 18.914 9.31691 19.0196L8.44739 26.5905C8.41475 26.8747 8.70493 27.0854 8.96443 26.9658L15.8469 23.796C15.9441 23.7513 16.0559 23.7513 16.1531 23.796L23.0356 26.9658C23.2951 27.0854 23.5852 26.8747 23.5526 26.5905L22.9165 21.0518C22.9165 21.0518 22.8582 20.5443 22.6831 19.0196C22.671 18.914 22.7051 18.8083 22.7768 18.7299L27.9036 13.118C28.0959 12.9075 27.9853 12.5673 27.7061 12.5106L20.2832 11.0035C20.1787 10.9822 20.0886 10.9165 20.0364 10.8234L16.3195 4.18742Z" fill="#FECE48"/>
<path d="M15.3283 16.6132C14.8398 15.4635 11.2371 14.4013 9.49681 14.014C10.8402 13.1088 15.8372 13.1679 18.1677 13.3106C18.7668 13.3795 20.2853 13.5433 21.5981 14.0494C21.6711 14.0775 21.6981 14.1651 21.6498 14.2267C20.9307 15.1423 18.3729 17.5127 17.1296 18.6315L16.6106 19.2737C18.6359 19.3858 23.1016 19.5428 24.7625 19.2737C24.2129 19.977 23.3784 20.8027 22.9306 21.2002C22.9611 21.4448 22.9917 21.8424 23.0833 22.4846C14.4612 23.2429 10.9623 21.6283 10.2601 20.7415C10.372 20.6294 11.5424 19.6468 15.3283 16.6132Z" fill="#F6AD46"/>
<path d="M15.6336 12.3015C13.3406 12.3015 10.7232 13.2275 9.4353 13.8194C9.31855 13.8731 9.35963 14.0372 9.48807 14.0353C14.3874 13.9644 16.6964 14.456 17.2469 14.8193C17.305 14.8576 17.299 14.9349 17.2439 14.9773C15.1008 16.6288 11.2338 19.8155 10.2577 20.6263C10.176 20.6942 10.2163 20.8245 10.3216 20.8373C16.7003 21.6119 22.4596 20.4054 24.6849 19.3616C24.8044 19.3055 24.7496 19.1478 24.6183 19.1612C21.2432 19.5068 17.4827 18.643 15.9784 18.0933C15.891 18.0614 15.8739 17.9484 15.9461 17.8895C17.1916 16.8729 19.7089 14.8211 21.1825 13.6297C21.2469 13.5777 21.2417 13.4781 21.1717 13.4339C20.0482 12.724 18.7689 12.3015 15.6336 12.3015Z" fill="white"/>
</svg>
