<svg width="32" height="32" viewBox="0 0 32 32" fill="none" xmlns="http://www.w3.org/2000/svg">
<path d="M26.9842 13.1017C26.9842 6.97041 22.0657 2.00004 15.9984 2.00004C10.5908 1.99234 5.98248 5.96386 5.13628 11.3611C4.29008 16.7584 7.45789 21.975 12.603 23.6568V29.2193C12.603 29.6505 12.9489 30 13.3756 30H18.5903C19.017 30 19.3629 29.6505 19.3629 29.2193V23.6607C23.9008 22.1841 26.979 17.9193 26.9842 13.1017ZM15.9984 16.853C13.9472 16.853 12.2843 15.1726 12.2843 13.0997C12.2843 11.0269 13.9472 9.34648 15.9984 9.34648C18.0496 9.34648 19.7125 11.0269 19.7125 13.0997C19.7125 15.1726 18.0496 16.853 15.9984 16.853Z" fill="#2684FF"/>
<path fill-rule="evenodd" clip-rule="evenodd" d="M15.9984 2.00001V9.35036C18.0496 9.35036 19.7124 11.0307 19.7124 13.1036C19.7124 15.1765 18.0496 16.8568 15.9984 16.8568C16.8989 16.8568 17.7625 17.2183 18.3993 17.8618C19.036 18.5053 19.3937 19.378 19.3937 20.288V23.6646C24.5407 21.9824 27.71 16.7643 26.8638 11.365C26.0176 5.96579 21.4078 1.99262 15.9984 2.00001Z" fill="url(#paint0_linear_1_13548)"/>
<defs>
<linearGradient id="paint0_linear_1_13548" x1="21.4912" y1="21.6543" x2="21.4912" y2="9.86171" gradientUnits="userSpaceOnUse">
<stop offset="0.18" stop-color="#0052CC"/>
<stop offset="1" stop-color="#2684FF"/>
</linearGradient>
</defs>
</svg>
