<svg width="32" height="32" viewBox="0 0 32 32" fill="none" xmlns="http://www.w3.org/2000/svg">
<path d="M2 11.6C2 8.23969 2 6.55953 2.65396 5.27606C3.2292 4.14708 4.14708 3.2292 5.27606 2.65396C6.55953 2 8.23969 2 11.6 2H20.4C23.7603 2 25.4405 2 26.7239 2.65396C27.8529 3.2292 28.7708 4.14708 29.346 5.27606C30 6.55953 30 8.23969 30 11.6V20.4C30 23.7603 30 25.4405 29.346 26.7239C28.7708 27.8529 27.8529 28.7708 26.7239 29.346C25.4405 30 23.7603 30 20.4 30H11.6C8.23969 30 6.55953 30 5.27606 29.346C4.14708 28.7708 3.2292 27.8529 2.65396 26.7239C2 25.4405 2 23.7603 2 20.4V11.6Z" fill="url(#paint0_linear_44_3)"/>
<path fill-rule="evenodd" clip-rule="evenodd" d="M9.245 10.68C9.245 9.88747 9.88747 9.245 10.68 9.245C17.3102 9.245 22.685 14.6198 22.685 21.25C22.685 22.0619 22.0269 22.72 21.215 22.72H17.505C16.6931 22.72 16.035 22.0619 16.035 21.25C16.035 18.2925 13.6375 15.895 10.68 15.895C9.88747 15.895 9.245 15.2525 9.245 14.46V10.68Z" fill="white"/>
<defs>
<linearGradient id="paint0_linear_44_3" x1="30" y1="30" x2="2" y2="2" gradientUnits="userSpaceOnUse">
<stop stop-color="#3D35DE"/>
<stop offset="0.265" stop-color="#5137E8"/>
<stop offset="1" stop-color="#793CF8"/>
</linearGradient>
</defs>
</svg>
