<svg width="32" height="32" viewBox="0 0 32 32" fill="none" xmlns="http://www.w3.org/2000/svg">
<circle cx="16" cy="16" r="14" fill="#1A1919"/>
<path d="M25.7525 15.4383L26 14.5895L25.1337 14.6144C25.0594 14.6144 24.5396 14.5895 24.0198 14.215H24.1436C24.6634 14.215 25.1832 13.8904 25.3812 13.4411L25.7525 12.6172C25.2822 12.6172 24.8614 12.5673 24.8614 12.5673C24.8614 12.5673 24.5149 12.5173 24.1436 12.1179C23.8713 11.8433 23.5248 11.6935 23.1535 11.6935C22.9802 11.6935 22.8564 11.7184 22.7327 11.7684C22.7574 11.6935 22.7822 11.6436 22.7822 11.5687C22.9059 10.7947 22.4109 10.1956 22.4109 10.1956L21.7673 9.39667L21.3713 10.3454C21.3713 10.3454 21.2723 10.57 21.099 10.6699C21.0495 10.3953 20.901 10.0707 20.6287 9.77115C20.0842 9.19695 19.4406 9.12205 19.0941 9.12205C18.9455 9.12205 18.8218 9.14702 18.797 9.14702L18.0049 9.29681C18.0545 9.12205 18.1535 8.82247 18.3267 8.54785L18.7475 7.87379L17.6337 7.99861L17.2871 7.24965L16.6188 7.59917L16 7L15.4059 7.62413L14.7376 7.27462L14.3911 8.02358L13.302 7.89875L13.7228 8.57282C13.896 8.84743 13.995 9.14702 14.0446 9.32178L13.302 9.17198H13.2772C13.2277 9.17198 13.1287 9.14702 12.9554 9.14702C12.6089 9.14702 11.9653 9.22191 11.4208 9.79612C11.1238 10.0957 11 10.4202 10.9505 10.6949C10.7772 10.595 10.6782 10.3703 10.6782 10.3703L10.2822 9.42164L9.61386 10.2455C9.5396 10.3454 9.14356 10.8946 9.24257 11.5936C9.24257 11.6685 9.26733 11.7184 9.29208 11.7933C9.16832 11.7434 9.0198 11.7184 8.87129 11.7184C8.5 11.7184 8.15347 11.8682 7.88119 12.1429C7.48515 12.5423 7.16337 12.5922 7.16337 12.5922C7.16337 12.5922 6.81683 12.6671 6.27228 12.6422L6.64356 13.466C6.84158 13.9154 7.36139 14.2399 7.88119 14.2399H8.00495C7.48515 14.6144 6.96535 14.6394 6.89109 14.6394L6 14.5895L6.27228 15.4383C6.39604 15.8627 6.84158 16.5867 7.70792 16.6616C7.60891 17.061 7.41089 17.4854 6.96535 17.6852L6.32178 17.9598L6.66832 18.5839C6.86634 18.9085 7.33663 19.3079 8.00495 19.3079C8.15347 19.3079 8.30198 19.2829 8.42574 19.258C8.4505 19.4078 8.5 19.5576 8.5495 19.7074C8.74752 20.3065 8.57426 20.7309 8.57426 20.7309L8.25248 21.405L8.9703 21.6047C8.9703 21.6047 9.19307 21.6796 9.46535 21.6796C9.58911 21.6796 9.71287 21.6546 9.81188 21.6297C9.88614 21.6047 9.98515 21.5798 10.0594 21.5548C10.1584 21.7295 10.2574 21.8793 10.4059 22.0042C10.8762 22.4785 11.5198 22.7282 12.3366 22.7282H12.9307L11.7178 23.2275L12.6337 23.6768C12.9802 23.8516 13.3762 24.0264 13.7723 24.1761L13.6485 24.5007L13.9703 24.6505C13.995 24.6755 14.6139 24.9501 15.6287 25H16.3713C17.3861 24.9501 18.0049 24.6755 18.0297 24.6505L18.3515 24.5007L18.2277 24.1761C18.6485 24.0264 19.0693 23.8266 19.3911 23.6519L20.3069 23.2025L19.0941 22.7032H19.6881C20.5049 22.7032 21.1733 22.4535 21.6188 21.9792C21.7426 21.8544 21.8663 21.6796 21.9653 21.5298C22.0396 21.5548 22.1139 21.5798 22.2129 21.6047C22.3119 21.6297 22.4356 21.6546 22.5594 21.6546C22.8317 21.6546 23.0545 21.6047 23.0545 21.6047L23.7723 21.405L23.4505 20.7309C23.4505 20.706 23.2772 20.3065 23.4752 19.7074C23.5248 19.5576 23.5743 19.4078 23.599 19.258C23.7228 19.2829 23.8713 19.3079 24.0198 19.3079C24.8861 19.3079 25.2822 18.7087 25.3564 18.5589L25.703 17.9348L25.0594 17.6602C24.6139 17.4605 24.3911 17.0361 24.3168 16.6366C25.1584 16.5867 25.6287 15.8627 25.7525 15.4383ZM16 9.57143C15.3069 9.57143 14.7871 9.79612 14.6881 10.0707L16 10.595L17.3119 10.0707C17.2129 9.79612 16.6931 9.57143 16 9.57143ZM16.0248 23.4771H16C15.5792 23.4771 15.0099 23.4022 14.7376 23.3024L14.3911 24.2261C14.6139 24.301 15.3564 24.4508 16 24.4508C16.6436 24.4508 17.4109 24.301 17.6089 24.2261L17.2871 23.3024C17.0149 23.4022 16.4455 23.4771 16.0248 23.4771Z" fill="white"/>
<path fill-rule="evenodd" clip-rule="evenodd" d="M17.5594 9.39687C17.2624 9.14722 16.6931 8.92253 16 8.92253C15.3069 8.92253 14.7624 9.14722 14.4406 9.39687C14.4406 9.39687 14.3663 8.84764 14.0446 8.34833L14.6139 8.42322L14.9109 7.79909L15.4307 8.09868L15.9752 7.54944L16.5198 8.09868L17.0891 7.79909L17.3861 8.42322L17.9554 8.34833C17.6584 8.84764 17.5594 9.39687 17.5594 9.39687ZM14.7376 8.67288L14.5891 8.64791L14.4653 8.59798C14.5396 8.74777 14.5891 8.89757 14.6139 9.02239C14.9851 8.79771 15.505 8.67288 16.0248 8.67288C16.5693 8.67288 17.0644 8.79771 17.4604 9.02239C17.4851 8.89757 17.5347 8.74777 17.6089 8.59798L17.3119 8.64791L17.2376 8.49812L17.0396 8.07371L16.6683 8.27343L16.5198 8.34833L16.396 8.24847L16.0248 7.84902L15.6287 8.24847L15.5297 8.37329L15.3812 8.2984L15.0099 8.09868L14.8119 8.52309L14.7376 8.67288Z" fill="black"/>
<path d="M20.0594 12.3428C21.3713 13.0668 22.5594 14.2651 22.7574 15.8879C23.0545 17.5106 23.7475 17.91 23.7475 17.91C23.203 17.6354 22.8564 16.9114 22.7822 16.6618C22.6832 18.0848 21.9901 19.0585 21.198 20.0071C20.7772 20.5064 20.6287 20.9808 20.6287 20.9808C20.6287 20.9808 20.703 20.4565 21.0743 20.0071C21.8168 19.1084 22.5347 17.96 22.5842 16.6618C22.6089 15.7381 22.3861 14.9891 22.0149 14.3899C22.2129 15.039 22.1881 15.813 21.495 16.537C21.495 16.537 22.8812 14.8643 20.9505 13.1666C20.402 12.7026 19.8155 12.3662 19.3719 12.1117C19.195 12.0102 19.0408 11.9218 18.9208 11.8435C20.4802 12.3677 21.2475 11.7935 21.2475 11.7935C20.7525 12.2429 20.1089 12.2429 19.7129 12.168C19.8366 12.218 19.9356 12.2679 20.0594 12.3428Z" fill="black"/>
<path fill-rule="evenodd" clip-rule="evenodd" d="M24.1683 16.2873C25.0594 16.2873 25.3812 15.3636 25.3812 15.3137L25.4802 14.9891H25.1337C25.0099 14.9891 24.0198 14.9641 23.3267 14.0654L23.2772 13.9905L23.2536 13.9604C22.7927 13.373 22.3729 12.8379 21.5941 12.5924C21.6188 12.5675 21.6436 12.5425 21.6931 12.5175C22.1139 12.2429 22.3366 11.9184 22.4109 11.5189C22.5099 10.9447 22.1386 10.4704 22.1139 10.4454L21.8663 10.1209L21.7178 10.4953C21.7178 10.5203 21.4455 11.1195 20.901 11.1195H20.7525C20.7772 10.8449 20.7277 10.4454 20.3564 10.0709C19.9109 9.5966 19.3663 9.54666 19.0941 9.54666C18.9886 9.54666 18.9081 9.55925 18.8614 9.56655C18.8424 9.56953 18.829 9.57163 18.8218 9.57163L18.4505 9.64653L18.6733 9.94611C18.8465 10.1958 19.0198 10.6202 18.8218 10.8698C18.7717 10.9203 18.6991 10.9595 18.6192 11.0026C18.5806 11.0234 18.5403 11.0452 18.5 11.0695L18.4608 11.0892C18.2175 11.2106 17.9059 11.3662 17.9059 11.7686C17.9059 12.0432 18.104 12.3178 18.5 12.5675C19.6139 13.2665 20.3069 14.0155 20.604 14.8393C21.0743 16.0876 20.4554 16.8116 19.8861 17.1861L19.6139 17.3608L19.8366 17.5855C19.8614 17.6105 20.1584 17.8601 20.5545 17.91H20.7772C21.0495 17.91 21.2723 17.8601 21.4455 17.8102C21.4114 17.8791 21.3654 17.9362 21.3158 17.9978C21.2935 18.0254 21.2705 18.0539 21.2475 18.0848C20.901 18.4843 20.505 18.659 19.9109 18.659H19.6881L19.6634 18.8837L19.6633 18.8921C19.662 18.9681 19.6558 19.3482 20.0347 19.6826C20.0842 19.7325 20.1584 19.7824 20.2327 19.8074C19.9604 20.0571 19.7129 20.4565 19.6634 21.1805C19.6139 21.7797 19.4901 22.0044 19.4653 22.0044L19.2178 22.3788H19.6634C20.3812 22.3788 20.9505 22.1791 21.3218 21.7797C21.5446 21.555 21.6683 21.2804 21.7673 21.0307C21.8911 21.1306 22.0644 21.2304 22.2624 21.2804C22.3366 21.3053 22.4356 21.3053 22.5347 21.3053C22.681 21.3053 22.8137 21.2781 22.8831 21.2638C22.9076 21.2588 22.9242 21.2554 22.9307 21.2554L23.203 21.1805L23.0792 20.9059C23.0792 20.903 23.0759 20.8935 23.0705 20.8777C23.0286 20.7569 22.8603 20.2702 23.0792 19.6077C23.1782 19.2831 23.2525 18.9836 23.2772 18.7589C23.4505 18.8587 23.698 18.9336 23.995 18.9336C24.6239 18.9336 24.9267 18.5021 24.9959 18.4034C25.003 18.3933 25.0076 18.3867 25.0099 18.3844L25.1584 18.1347L24.9109 18.0349C24.0941 17.6854 23.896 16.7616 23.8713 16.2623C23.9455 16.2873 24.0198 16.2873 24.1188 16.2873H24.1683ZM24.8366 18.2596C24.8366 18.2596 24.5891 18.684 24.0446 18.684C23.3762 18.684 23.104 18.2596 23.104 18.2596C23.104 18.2596 23.1535 18.7838 22.9059 19.5078C22.6089 20.3816 22.9059 21.0057 22.9059 21.0057C22.9059 21.0057 22.7574 21.0557 22.5594 21.0557C22.4851 21.0557 22.4109 21.0557 22.3614 21.0307C21.7921 20.9059 21.6683 20.3816 21.6683 20.3816C21.6683 20.3816 21.7178 22.1042 19.7129 22.1042H19.6881C19.6881 22.1042 19.8614 21.8546 19.9109 21.1555C20.0099 19.8823 20.8762 19.7076 20.8762 19.7076C20.8762 19.7076 20.4059 19.6576 20.2079 19.4579C19.8861 19.1833 19.9109 18.8338 19.9109 18.8338C20.604 18.8338 21.0743 18.5841 21.4208 18.1847C21.7921 17.7353 21.8663 17.261 21.8663 17.261C21.8663 17.261 21.495 17.6105 20.7525 17.6105H20.5545C20.2079 17.5855 19.9604 17.3608 19.9604 17.3608C20.7277 16.8615 21.2475 16.0127 20.7772 14.7145C20.4059 13.6659 19.4901 12.892 18.5743 12.3178C18.302 12.1431 18.1287 11.9184 18.1287 11.7436C18.1287 11.4864 18.356 11.3759 18.5902 11.262C18.7424 11.1881 18.8975 11.1127 18.9951 10.9947C19.2921 10.6451 19.0941 10.0959 18.8465 9.77135C18.8465 9.77135 18.9208 9.74639 19.0693 9.74639C19.3416 9.74639 19.7871 9.82128 20.1584 10.1958C20.6535 10.72 20.4554 11.2942 20.4554 11.2942L20.5792 11.3192C20.6535 11.3442 20.7277 11.3442 20.8267 11.3442H20.8762C21.5941 11.3442 21.9158 10.5702 21.9158 10.5702C21.9158 10.5702 22.6832 11.5189 21.5446 12.2679C21.3465 12.3927 21.2723 12.5175 21.297 12.6424L21.3218 12.7173L21.396 12.7422C22.1679 12.9546 22.5862 13.479 23.0685 14.0838L23.1535 14.1902C23.9208 15.1888 25.0099 15.2138 25.1584 15.2138H25.1832C25.1832 15.2138 24.9356 16.0127 24.1931 16.0127H24.1683C23.8218 16.0127 23.6485 15.8629 23.6485 15.8629C23.6485 15.8629 23.5 17.7103 24.8366 18.2596Z" fill="black"/>
<path fill-rule="evenodd" clip-rule="evenodd" d="M23.2622 13.2895C23.1012 13.079 22.9289 12.8537 22.6089 12.6923L22.2624 12.4926L22.5594 12.2929C22.5648 12.2929 22.5807 12.2846 22.6055 12.2717C22.6952 12.2252 22.9016 12.1181 23.1535 12.1181C23.4257 12.1181 23.6733 12.2429 23.8713 12.4426C24.3663 12.9419 24.8119 12.9919 24.8366 12.9919L25.1832 13.0168L25.0347 13.3414C24.8861 13.6659 24.5149 13.8906 24.1436 13.8906C24.0615 13.8906 23.9965 13.8735 23.9203 13.8534L23.9025 13.8487L23.8713 13.8407C23.6531 13.7527 23.5118 13.587 23.3627 13.4122C23.3427 13.3887 23.3225 13.3651 23.302 13.3414L23.2622 13.2895ZM23.7228 12.5675C23.5495 12.3677 23.3515 12.3178 23.1782 12.3178C22.9649 12.3178 22.7971 12.4098 22.7464 12.4376C22.7324 12.4453 22.7273 12.448 22.7327 12.4426C23.1043 12.6434 23.3193 12.916 23.4999 13.1449C23.6562 13.3429 23.7866 13.5082 23.9703 13.5661C24.0198 13.591 24.0941 13.591 24.1683 13.591C24.4653 13.591 24.7376 13.4163 24.8366 13.1916C24.8366 13.1916 24.2921 13.1666 23.7228 12.5675Z" fill="black"/>
<path d="M9.44057 16.6616C9.39106 15.7379 9.63859 15.0139 10.0099 14.3897C9.81185 15.0139 9.83661 15.8127 10.5297 16.5367C10.5297 16.5367 9.16829 14.889 11.0742 13.1664C11.6228 12.7024 12.2093 12.366 12.6529 12.1115C12.8298 12.01 12.984 11.9216 13.1039 11.8433C11.5445 12.3675 10.7772 11.7933 10.7772 11.7933C11.2723 12.2177 11.9158 12.2177 12.3119 12.1678C12.2805 12.1836 12.2467 12.1994 12.2111 12.216C12.1345 12.2519 12.0499 12.2914 11.9653 12.3426C10.6534 13.0666 9.46532 14.2649 9.2673 15.8876V15.8627C8.97027 17.4854 8.2772 17.8849 8.2772 17.8849C8.82176 17.6103 9.16829 16.9112 9.24255 16.6366C9.34156 18.0596 10.0099 19.0333 10.8267 19.982C11.2475 20.4813 11.396 20.9556 11.396 20.9556C11.396 20.9556 11.3218 20.4064 10.9505 19.982C10.2079 19.1082 9.49007 17.9847 9.44057 16.6616Z" fill="black"/>
<path fill-rule="evenodd" clip-rule="evenodd" d="M12.3614 21.1553C12.3861 21.7545 12.5346 21.9792 12.5346 21.9792L12.7574 22.3786H12.3119C11.594 22.3786 11.0495 22.1789 10.6534 21.7795C10.4059 21.5298 10.2822 21.2552 10.2079 21.0305C10.0841 21.1304 9.93562 21.2302 9.71284 21.2802C9.61383 21.3051 9.53958 21.3051 9.44057 21.3051C9.29427 21.3051 9.16148 21.2779 9.09212 21.2636C9.06759 21.2586 9.05099 21.2552 9.04453 21.2552L8.77225 21.1803L8.89601 20.9057C8.92077 20.9057 9.14354 20.3564 8.89601 19.6075C8.77225 19.2829 8.72275 18.9833 8.69799 18.7587C8.52473 18.8585 8.2772 18.9334 7.98017 18.9334C7.2871 18.9334 6.99007 18.4091 6.99007 18.4091L6.84156 18.1595L7.08908 18.0596C7.90591 17.7101 8.07918 16.7864 8.12869 16.2871C8.09422 16.2871 8.05976 16.2925 8.02282 16.2982C7.98017 16.3049 7.93422 16.3121 7.88116 16.3121H7.83166C6.94057 16.3121 6.61879 15.3883 6.61879 15.3384L6.51978 15.0139H6.86631C6.99007 15.0139 7.98017 14.9889 8.64849 14.0402L8.72275 13.9653C8.75675 13.9238 8.7905 13.8823 8.82416 13.8409C9.25584 13.3098 9.67111 12.7989 10.4059 12.5673C10.3812 12.5423 10.3564 12.5173 10.3069 12.4924C9.88611 12.2177 9.63859 11.8932 9.58908 11.4937C9.49007 10.8946 9.86136 10.4452 9.88611 10.4202L10.1336 10.0957L10.2822 10.4702C10.2822 10.4951 10.5544 11.0943 11.099 11.0943H11.2475C11.2227 10.8446 11.2723 10.4202 11.6435 10.0458C12.0891 9.59638 12.6336 9.52148 12.9059 9.52148C13.0792 9.52148 13.1782 9.54645 13.1782 9.54645L13.5495 9.62135L13.3267 9.92093C13.1534 10.1706 12.9802 10.62 13.1782 10.8446C13.2524 10.9195 13.3762 10.9944 13.5 11.0444L13.5392 11.064C13.7825 11.1855 14.094 11.341 14.094 11.7434C14.094 12.018 13.8713 12.2926 13.5 12.5423C12.3861 13.2413 11.693 13.9903 11.396 14.8141C10.9257 16.0624 11.5198 16.7864 12.1138 17.1609L12.3861 17.3356L12.1633 17.5603C12.1386 17.6103 11.8663 17.8599 11.4455 17.8849H11.2227C10.9752 17.8849 10.7277 17.8349 10.5544 17.785C10.5886 17.854 10.6346 17.911 10.6842 17.9726C10.7065 18.0002 10.7295 18.0287 10.7524 18.0596C11.0742 18.4341 11.495 18.6338 12.0891 18.6338H12.3119L12.3366 18.8585L12.3367 18.8628C12.3378 18.914 12.3471 19.3205 11.9653 19.6574C11.9158 19.7073 11.8416 19.7573 11.7673 19.7822C12.0396 20.0319 12.3119 20.4313 12.3614 21.1553ZM10.3564 20.3814C10.3564 20.3814 10.3069 22.104 12.3119 22.104C12.3179 22.104 12.3122 22.0907 12.2994 22.0609C12.2596 21.9681 12.1513 21.7153 12.1138 21.2053C12.0148 19.932 11.1485 19.7573 11.1485 19.7573C11.1485 19.7573 11.6188 19.6824 11.8168 19.5076C12.1386 19.208 12.1138 18.8835 12.1138 18.8835C11.4208 18.8835 10.9505 18.6338 10.6039 18.2344C10.2326 17.785 10.1584 17.3107 10.1584 17.3107C10.1584 17.3107 10.5297 17.6602 11.2723 17.6602H11.4703C11.8168 17.6352 12.0643 17.4105 12.0643 17.4105C11.297 16.9112 10.7772 16.0624 11.2475 14.7642C11.6188 13.7157 12.5346 12.9417 13.4505 12.3675C13.7475 12.1678 13.9208 11.9431 13.9208 11.7684C13.9208 11.4945 13.6909 11.3875 13.4553 11.2779C13.3043 11.2077 13.1511 11.1364 13.0544 11.0194C12.7822 10.6699 12.9554 10.1207 13.2029 9.7961C13.2029 9.7961 13.1039 9.77114 12.9802 9.77114C12.7326 9.77114 12.2623 9.82107 11.8911 10.2205C11.396 10.7448 11.594 11.319 11.594 11.319L11.4703 11.344C11.396 11.3689 11.297 11.3689 11.2227 11.3689H11.1732C10.4554 11.3689 10.1336 10.595 10.1336 10.595C10.1336 10.595 9.36631 11.5437 10.5049 12.2926C10.6782 12.4175 10.7772 12.5423 10.7524 12.6671L10.7277 12.742L10.6534 12.767C9.88071 12.9733 9.54963 13.3909 9.02142 14.0573C8.98025 14.1092 8.93852 14.1619 8.89601 14.215C8.12869 15.2136 7.01482 15.2385 6.89106 15.2385H6.86631C6.86631 15.2385 7.11383 16.0374 7.85641 16.0374H7.88116C8.2277 16.0125 8.40096 15.8876 8.40096 15.8876C8.40096 15.8876 8.52473 17.7101 7.18809 18.2593C7.18809 18.2593 7.43562 18.6838 7.98017 18.6838C8.64849 18.6588 8.92077 18.2593 8.92077 18.2593C8.92077 18.2593 8.87126 18.7836 9.11879 19.5076C9.41581 20.3814 9.11879 21.0055 9.11879 21.0055C9.11879 21.0055 9.29205 21.0555 9.46532 21.0555C9.51482 21.0555 9.58908 21.0555 9.66334 21.0305C10.2079 20.9057 10.3564 20.3814 10.3564 20.3814Z" fill="black"/>
<path fill-rule="evenodd" clip-rule="evenodd" d="M7.85641 13.8655C7.95542 13.8655 8.05443 13.8405 8.12869 13.8155C8.37621 13.7406 8.54948 13.5409 8.69799 13.3162C8.87126 13.0915 9.06928 12.8668 9.39106 12.6671L9.7376 12.4924L9.41582 12.2677C9.39106 12.2427 9.14354 12.0929 8.82176 12.0929C8.54948 12.0929 8.30195 12.1928 8.10393 12.4175C7.60888 12.9417 7.16334 12.9667 7.13859 12.9667L6.81681 12.9917L6.96532 13.3162C7.11383 13.6158 7.48512 13.8655 7.85641 13.8655ZM8.30195 12.5922C8.47522 12.3925 8.67324 12.3426 8.84651 12.3426C9.09403 12.3426 9.29205 12.4924 9.29205 12.4924C8.91489 12.6961 8.69899 12.9665 8.51672 13.1947C8.36404 13.3859 8.23495 13.5475 8.05443 13.6158C7.98017 13.6408 7.93067 13.6408 7.85641 13.6408C7.55938 13.6408 7.2871 13.441 7.18809 13.2413C7.18809 13.2364 7.2092 13.2305 7.24744 13.2199C7.40346 13.1764 7.84472 13.0534 8.30195 12.5922Z" fill="black"/>
<path d="M15.3564 11.4188C15.5049 11.5436 15.6039 11.5686 15.6039 11.5686L15.6534 11.5935V11.294L15.1095 11.0695C15.1133 11.0913 15.1419 11.2457 15.3564 11.4188Z" fill="black"/>
<path d="M14.9356 19.0583C14.9109 19.0583 14.8614 19.0833 14.8614 19.1083C14.8614 19.1332 14.8861 19.1832 14.9109 19.1832C14.9356 19.1832 14.9851 19.1582 14.9851 19.1332C15.0099 19.0833 14.9851 19.0583 14.9356 19.0583Z" fill="black"/>
<path d="M15.5544 13.3411V13.6657C15.6782 13.5408 15.8762 13.5658 15.8762 13.5658V14.0402C15.8762 14.0402 15.8762 14.2648 15.7772 14.3647H16.2227C16.1485 14.2648 16.1237 14.0402 16.1237 14.0402V13.5658C16.1237 13.5658 16.3465 13.5408 16.4455 13.6657V13.3411H15.5544Z" fill="black"/>
<path d="M16.6683 11.4188C16.9158 11.2191 16.9158 11.0443 16.9158 11.0443L16.3713 11.269V11.5686L16.4208 11.5436C16.4208 11.5436 16.5198 11.5187 16.6683 11.4188Z" fill="black"/>
<path fill-rule="evenodd" clip-rule="evenodd" d="M17.6586 10.1704C17.6586 9.69608 16.8913 9.29663 16.0249 9.29663C15.1586 9.29663 14.3913 9.72104 14.3913 10.1704L14.416 10.2952L14.7626 12.2925L14.416 12.4922L13.5002 12.9915C13.5002 12.9915 13.3022 13.0914 13.2032 13.1663C12.8566 13.4159 12.7824 13.7405 12.9804 13.8903C13.0299 13.6156 13.2527 13.316 13.6735 13.316C13.9705 13.316 14.1933 13.4658 14.3913 13.7155C14.4408 13.7654 14.4903 13.8403 14.515 13.9152L14.6636 14.1399H12.3616C12.5348 14.4894 12.6834 14.8389 12.6834 15.2384V20.3563C12.6834 21.6045 13.6239 22.1787 14.6636 22.1787L14.7883 22.1786C15.4676 22.1774 15.5792 22.1772 16.0002 22.5782C16.402 22.1729 16.522 22.1738 17.1225 22.1778C17.1879 22.1783 17.2591 22.1787 17.3368 22.1787C18.3517 22.1787 19.317 21.5796 19.317 20.3563V15.2134C19.317 14.814 19.4655 14.4645 19.6388 14.1149H17.3368L17.4853 13.8903C17.5001 13.8679 17.5149 13.8478 17.529 13.8285C17.5622 13.7833 17.5917 13.7431 17.6091 13.6905C17.7824 13.4658 18.0299 13.2911 18.3269 13.2911C18.7477 13.2911 18.9705 13.5907 19.02 13.8653C19.218 13.7155 19.1438 13.366 18.7972 13.1413C18.6982 13.0664 18.5002 12.9665 18.5002 12.9665L17.2873 12.2675L17.6338 10.2703L17.6586 10.1704ZM14.7131 10.3951L15.9259 10.8195V12.7418L15.0348 12.2425L14.7131 10.3951ZM14.9606 14.4395C15.1586 14.6392 15.3566 14.764 15.5299 14.8389C15.5051 14.9388 15.4804 15.1385 15.5546 15.3382C15.6289 15.488 15.7527 15.6129 15.9507 15.7127C15.9754 15.9124 16.0992 16.212 16.4457 16.3369L16.0992 16.6864L14.7131 16.6614C14.7056 16.6538 14.6958 16.6463 14.6852 16.638C14.6606 16.619 14.6313 16.5964 14.614 16.5615V16.5366L14.8368 16.5615H14.8616C14.9111 16.5615 14.9358 16.5366 14.9606 16.4866C14.9606 16.4367 14.9358 16.3868 14.8863 16.3868L14.614 16.3369L14.9111 15.2633L14.614 14.6392L14.1438 15.1385L14.119 16.262L13.7972 16.212C13.7477 16.212 13.6982 16.237 13.6982 16.2869C13.6982 16.3369 13.723 16.3868 13.7725 16.3868L13.8962 16.4118C13.8467 16.4367 13.822 16.4617 13.822 16.4617L13.7725 16.4866V16.5116C13.6982 16.8362 13.8715 17.1108 14.0447 17.2606V17.3105C14.0447 17.3604 14.0447 17.4104 14.0695 17.4353C14.0942 17.4853 14.1438 17.5102 14.1933 17.5102H14.218C14.2923 17.5102 14.3665 17.4603 14.3913 17.3604H14.5893L16.3962 17.685L16.421 17.66C16.5695 17.5602 17.114 17.1607 17.2873 17.0109C17.3236 17.0475 17.3598 17.0706 17.4057 17.1C17.4225 17.1108 17.4407 17.1224 17.4606 17.1357C17.4111 17.3355 17.3863 17.6351 17.6338 17.8847H13.0299V15.2134C13.0299 14.9638 12.9556 14.6891 12.8566 14.4395H14.9606ZM16.7799 17.2106C16.6192 17.3291 16.458 17.4479 16.3715 17.5102L14.7131 17.2106V17.1607C14.7378 17.0858 14.7626 16.961 14.7626 16.8112L16.1487 16.8362L16.1735 16.8112C16.1771 16.8075 16.1901 16.7949 16.2103 16.7754C16.3259 16.6638 16.6769 16.3247 16.8665 16.1122C16.8989 16.1611 16.9418 16.1994 16.9883 16.2409C17.0131 16.263 17.0388 16.2859 17.0645 16.3119C17.0645 16.4866 17.0645 16.7113 17.1883 16.9111C17.1018 16.9734 16.9406 17.0922 16.7799 17.2106ZM14.4408 16.6115C14.4903 16.6864 14.5398 16.7363 14.5893 16.7862C14.5893 16.8611 14.5893 16.986 14.5645 17.0858C14.5645 17.1108 14.5645 17.1357 14.5398 17.1607V17.1857C14.4655 17.1857 14.317 17.1857 14.218 17.1357C14.0942 17.0858 13.8962 16.8362 13.9457 16.5865C13.9952 16.5615 14.1438 16.4866 14.2428 16.4866C14.3418 16.4866 14.3913 16.5116 14.4408 16.6115ZM14.2675 16.2869L14.2923 15.2134L14.5398 14.9638L14.6883 15.2883L14.3913 16.3119L14.2675 16.2869ZM16.9408 21.8292L17.1388 21.2301C17.1564 21.1767 17.0861 21.098 17.0174 21.0211C16.9896 20.99 16.9621 20.9592 16.9408 20.9305C16.9755 20.948 17.0285 20.9778 17.088 21.0113C17.1982 21.0732 17.3307 21.1477 17.4111 21.1801C17.3863 21.2051 17.1883 21.8292 17.1883 21.8292H16.9408ZM17.8071 21.1302L17.6834 21.8043C17.6462 21.8043 17.6029 21.8105 17.5596 21.8167C17.5163 21.823 17.473 21.8292 17.4358 21.8292L17.5596 21.1801C17.584 21.0817 17.47 21.0196 17.3185 20.9371C17.1627 20.8523 16.9673 20.7459 16.8418 20.556C16.718 20.7058 16.4952 20.7308 16.2477 20.7308C16.0249 20.7308 15.8269 20.7058 15.7032 20.6808H15.6041C15.5299 20.6808 15.4556 20.7058 15.4061 20.7807L15.3566 20.8556L14.6636 20.6559L14.4903 20.9554C14.4655 21.0054 14.4655 21.0303 14.515 21.0803L14.5645 21.1302C14.5398 21.2301 14.3913 21.3799 14.3913 21.3799L14.2923 21.255C14.218 21.1552 14.218 20.9804 14.317 20.8306L14.5893 20.3563L15.1834 20.4312L15.0843 20.2314C15.0044 20.054 15.0588 19.8453 15.1073 19.6591C15.1338 19.5572 15.1586 19.4621 15.1586 19.3826C15.1586 19.4326 15.0843 19.4575 15.0348 19.4575H14.8121L14.6636 19.5574L14.5398 19.4326C14.515 19.4076 14.515 19.3577 14.5645 19.3327L14.8616 19.0081L14.515 18.6087L15.0101 18.8584L15.1586 18.6836C15.2081 18.7335 15.1834 18.8334 15.1834 18.8334C15.3319 18.8334 15.7527 19.083 15.7774 19.6323V19.7072C15.8022 19.7571 15.9012 19.857 16.0002 19.857L16.6685 19.9319C16.6979 19.9319 16.7389 19.9201 16.7884 19.906C16.8642 19.8843 16.9598 19.857 17.0645 19.857C17.1636 19.857 17.2873 19.8819 17.4111 19.9568C17.4111 19.9568 17.4606 19.9069 17.5596 19.9069H17.5843C17.8256 19.9069 17.9526 20.0881 18.0846 20.2766C18.1151 20.3201 18.1459 20.364 18.1784 20.4062C18.3022 20.581 18.4507 20.8306 18.4507 20.8306C18.4012 20.9055 18.3269 20.9305 18.2527 20.9305H18.1784C17.9906 20.9013 17.8955 20.6595 17.8145 20.4533C17.7567 20.3063 17.706 20.1773 17.6338 20.1566H17.6091C17.5596 20.1566 17.5348 20.2065 17.5348 20.2065C17.5674 20.305 17.5762 20.3795 17.5841 20.4469C17.5942 20.5331 17.603 20.6077 17.6586 20.7058C17.7024 20.7794 17.7634 20.8443 17.8162 20.9005C17.853 20.9397 17.8858 20.9746 17.9061 21.0054C17.8319 20.9554 17.8071 21.0553 17.8071 21.1302ZM14.1933 20.5061L14.218 20.581C14.1933 20.6559 13.9705 20.7557 13.9705 20.7557L13.921 20.6309C13.8715 20.5061 13.8715 20.3063 14.0447 20.1815L14.416 19.9568L14.8121 20.0317C14.8121 20.1566 14.8863 20.2564 14.8863 20.2564L14.4655 20.1815L14.218 20.3563C14.1933 20.3812 14.1933 20.4561 14.1933 20.5061ZM17.8566 21.7793L17.9804 21.1801C17.9804 21.1676 17.9866 21.1489 17.9928 21.1302C17.9989 21.1115 18.0051 21.0928 18.0051 21.0803C18.0299 21.1052 18.0794 21.1052 18.1041 21.1052H18.2279C18.4012 21.1052 18.5002 21.0054 18.5744 20.9305L18.6735 20.8306L18.5992 20.7058C18.5992 20.7058 18.4259 20.4312 18.3022 20.2564C18.2898 20.2439 18.2774 20.2252 18.265 20.2065C18.2527 20.1878 18.2403 20.169 18.2279 20.1566L18.1943 20.1109C18.0526 19.9175 17.8803 19.6822 17.5596 19.6822H17.5348C17.5101 19.6822 17.4853 19.6884 17.4606 19.6947C17.4358 19.7009 17.4111 19.7072 17.3863 19.7072C17.2873 19.6572 17.1636 19.6323 17.0398 19.6323C16.9086 19.6323 16.7967 19.6713 16.7212 19.6975L16.6933 19.7072C16.6685 19.7321 16.6438 19.7321 16.619 19.7321L15.9754 19.6572C15.9754 19.6572 15.9507 19.6323 15.9012 19.6073L16.0497 19.5574C16.0002 19.083 15.5546 18.7835 15.3071 18.6836C15.3071 18.6337 15.2824 18.5837 15.2329 18.5588L15.0843 18.4339L14.9606 18.5837L14.9111 18.6337L13.9952 18.2592L14.5893 19.0081L14.3665 19.3577C14.2923 19.4575 14.3665 19.5324 14.3665 19.5324L14.614 19.7072L14.8616 19.6073H14.8863C14.8863 19.6572 14.8616 19.807 14.8368 19.832L14.416 19.7821L13.9457 20.0317C13.6982 20.2065 13.6735 20.5061 13.7725 20.6808L13.8962 20.9305L14.0447 20.8556C13.9952 21.0303 14.02 21.2301 14.119 21.3299L14.218 21.4547L14.3418 21.6295L14.4903 21.4797C14.5398 21.4298 14.6636 21.28 14.7131 21.1552L14.7378 21.0553L14.6636 20.9804V20.9554L14.7378 20.8306L15.3071 20.9554L15.4309 20.9804L15.5051 20.8556L15.5299 20.8056C15.5299 20.7931 15.5299 20.7869 15.533 20.7838C15.5361 20.7807 15.5423 20.7807 15.5546 20.7807H15.6289C15.8517 20.8306 16.0497 20.8306 16.223 20.8306C16.3962 20.8306 16.4952 20.8306 16.619 20.7807C16.619 20.7807 16.916 21.1302 16.9408 21.1552L16.7428 21.7294V21.7543C16.3962 21.7793 16.223 21.8542 16.0002 22.0789C15.7032 21.7793 15.4804 21.7543 14.6636 21.7543C13.6982 21.7543 13.0299 21.1801 13.0299 20.2564V18.0095H18.9705V20.2564C18.9705 21.0803 18.5497 21.6045 17.8566 21.7793ZM19.1437 14.4395C19.0447 14.6891 18.9705 14.9388 18.9705 15.2134V16.8861C18.6239 16.8362 18.5744 16.4367 18.5744 16.4367V16.3618H18.5002C18.3517 16.3369 18.2527 16.2869 18.1537 16.212C17.9804 16.0373 17.9804 15.7627 17.9804 15.7627C17.9804 15.7665 17.9756 15.7759 17.9683 15.79C17.9289 15.8666 17.8171 16.084 18.0051 16.3369C18.1041 16.4617 18.2279 16.5366 18.4012 16.5615C18.4507 16.7613 18.5992 17.0608 18.9705 17.1108V17.9346H17.9309C17.5095 17.6886 17.6246 17.3022 17.6531 17.2066C17.6565 17.1955 17.6586 17.1883 17.6586 17.1857L17.7081 17.0858L17.6338 17.0109C17.1583 16.8282 17.2421 16.3947 17.2598 16.3031C17.2615 16.2946 17.2626 16.289 17.2626 16.2869L17.2873 16.212L17.2131 16.1871C16.8138 15.9976 16.8379 15.5158 16.8414 15.4457L16.8418 15.4381C16.718 15.538 16.6685 15.7627 16.7428 15.9873C16.6933 16.0373 16.619 16.1122 16.5695 16.1871C16.1487 16.0622 16.1487 15.6378 16.1487 15.6378V15.5629L16.0992 15.538C15.9259 15.4631 15.8022 15.3882 15.7527 15.2384C15.6784 15.0886 15.7032 14.9388 15.7279 14.8639C15.7527 14.8639 15.7774 14.8701 15.8022 14.8764C15.8269 14.8826 15.8517 14.8889 15.8764 14.8889H16.1735C16.4457 14.8639 16.7428 14.7391 17.0645 14.4145H19.1437V14.4395ZM17.5348 12.7418L17.9309 12.9915L18.0299 13.0414C17.8071 13.1163 17.6338 13.2162 17.4853 13.366L17.4606 13.3909C17.4358 13.4159 17.3863 13.4658 17.3616 13.5158C17.3616 13.5158 17.3616 13.5407 17.3368 13.5407C17.3121 13.5907 17.2873 13.6156 17.2378 13.6656C17.2378 13.6656 17.2378 13.6905 17.2131 13.6905C17.2007 13.7155 17.1821 13.7405 17.1636 13.7654C17.145 13.7904 17.1264 13.8154 17.114 13.8403C16.817 14.3396 16.3715 14.6392 15.9507 14.6392C15.5299 14.6392 15.0843 14.3396 14.7873 13.8403C14.7749 13.8154 14.7564 13.7904 14.7378 13.7654C14.7192 13.7405 14.7007 13.7155 14.6883 13.6905L14.6636 13.6656C14.6512 13.6406 14.6388 13.6219 14.6264 13.6032C14.614 13.5844 14.6017 13.5657 14.5893 13.5407L14.5645 13.5158C14.5522 13.4908 14.5336 13.4721 14.515 13.4534C14.4965 13.4346 14.4779 13.4159 14.4655 13.3909L14.4408 13.366C14.2923 13.2162 14.119 13.0914 13.8962 13.0414L13.9952 12.9915L14.3913 12.7418L14.8121 12.4922L15.9259 13.1163L17.0398 12.4922L17.5348 12.7418ZM16.9903 12.2425L16.0992 12.7169V10.7946L17.3121 10.3701L16.9903 12.2425ZM16.0002 10.5948L14.6883 10.0706C14.8121 9.79594 15.3071 9.57125 16.0002 9.57125C16.6933 9.57125 17.2131 9.79594 17.3121 10.0706L16.0002 10.5948Z" fill="black"/>
<path fill-rule="evenodd" clip-rule="evenodd" d="M18.9703 23.1527L18.6237 23.0029L18.7227 22.6534L18.8217 22.2539C18.8217 22.2539 18.2277 22.5785 17.3614 22.8281C17.1138 22.903 16.9406 22.928 16.9406 22.928V23.2276C16.9406 23.2276 16.495 23.3025 16.0247 23.3025C15.5544 23.3025 15.1089 23.2276 15.1089 23.2276V22.9529C15.1089 22.9529 14.9356 22.928 14.6881 22.8531C13.8217 22.6034 13.2277 22.2789 13.2277 22.2789L13.3267 22.6783L13.4257 23.0278L13.0792 23.1527L12.7079 23.3025C13.1534 23.5271 13.7475 23.8267 14.292 23.9765L14.1683 24.326C14.1683 24.326 14.8614 24.6506 16.0495 24.6506C17.2128 24.6506 17.9307 24.326 17.9307 24.326L17.8069 23.9765C18.2585 23.8523 18.7611 23.6079 19.1596 23.4142C19.2416 23.3743 19.3192 23.3365 19.3911 23.3025L18.9703 23.1527ZM13.0792 23.3025L13.6485 23.1027L13.4752 22.5535C13.7227 22.7033 14.2673 22.903 14.5891 23.0029L14.3168 23.7518C13.8217 23.652 13.4257 23.4772 13.0792 23.3025ZM16 24.4509C15.3564 24.4509 14.5891 24.3011 14.3911 24.2262L14.7128 23.3025C14.9851 23.3774 15.5544 23.4772 15.9752 23.4772H16C16.4208 23.4772 16.9901 23.4023 17.2623 23.3025L17.6336 24.2262C17.4109 24.3011 16.6683 24.4509 16 24.4509ZM17.7079 23.7768L17.4356 23.0278C17.7574 22.928 18.3019 22.7033 18.5742 22.5785L18.3762 23.1277L18.9455 23.3274L18.907 23.3441C18.5697 23.49 18.1847 23.6566 17.7079 23.7768Z" fill="black"/>
<path d="M15.5246 14.8618C15.3526 14.7866 15.1564 14.6623 14.9603 14.4645H12.8811C12.9801 14.7141 13.0544 14.9638 13.0544 15.2384V17.8847H17.6338C17.392 17.6408 17.4101 17.3493 17.4572 17.1497C17.3979 17.1227 17.3548 17.0793 17.3118 17.0359C17.1385 17.1607 16.5692 17.5851 16.4455 17.685L16.4207 17.71L14.6138 17.3854H14.4158C14.391 17.4603 14.3167 17.5352 14.2425 17.5352H14.2177C14.1757 17.5352 14.1337 17.5172 14.1068 17.4812C14.0917 17.4695 14.0788 17.4542 14.0695 17.4353C14.0447 17.4104 14.0447 17.3604 14.0447 17.3105V17.2691C13.9237 17.1831 13.8161 17.0325 13.7806 16.8528C13.7516 16.7488 13.7445 16.6337 13.7725 16.5116V16.4866L13.822 16.4617C13.822 16.4617 13.8358 16.4477 13.8636 16.4302L13.7722 16.4118C13.7227 16.4118 13.6979 16.3618 13.6979 16.3119C13.6979 16.308 13.6982 16.3042 13.6988 16.3006C13.6984 16.2961 13.6982 16.2915 13.6982 16.2869C13.6982 16.237 13.7477 16.212 13.7972 16.212L14.119 16.262L14.1438 15.1385L14.614 14.6392L14.9111 15.2633L14.9066 15.2795L14.9108 15.2883L14.6204 16.338L14.8863 16.3868C14.9358 16.3868 14.9606 16.4367 14.9606 16.4866L14.9588 16.4902C14.9598 16.4973 14.9603 16.5045 14.9603 16.5116C14.9603 16.5616 14.9108 16.5865 14.8613 16.5865H14.8365L14.6141 16.5616C14.6313 16.5964 14.6606 16.6191 14.6852 16.638C14.6958 16.6463 14.7056 16.6538 14.7131 16.6614L16.0992 16.6864L16.4276 16.3552C16.0946 16.2266 15.9747 15.934 15.9504 15.7377C15.7524 15.6628 15.6286 15.538 15.5544 15.3632C15.4776 15.2084 15.4901 15.0536 15.5111 14.9453C15.5147 14.9139 15.5195 14.8858 15.5246 14.8618Z" fill="#FCE527"/>
<path d="M17.858 21.7724L17.9804 21.1801C17.9804 21.1676 17.9866 21.1489 17.9928 21.1302C17.9982 21.1137 18.0037 21.0971 18.0049 21.0849C18.0079 21.0857 18.011 21.0867 18.0142 21.0877C18.0288 21.0974 18.0482 21.1018 18.0662 21.1037C18.071 21.1047 18.0753 21.1053 18.0791 21.1053H18.2029L18.2074 21.1052H18.2279C18.4012 21.1052 18.5002 21.0054 18.5744 20.9305L18.6735 20.8306L18.5992 20.7058C18.5992 20.7058 18.4259 20.4312 18.3022 20.2564C18.2898 20.2439 18.2774 20.2252 18.265 20.2065C18.2527 20.1878 18.2403 20.169 18.2279 20.1566L18.1943 20.1109C18.0526 19.9175 17.8803 19.6822 17.5596 19.6822H17.5348L17.5322 19.6822H17.5098C17.4646 19.6822 17.4194 19.6822 17.3742 19.7012C17.2773 19.6553 17.1585 19.6323 17.0398 19.6323C17.0357 19.6323 17.0316 19.6323 17.0275 19.6324C17.0233 19.6323 17.0191 19.6323 17.0148 19.6323C16.8836 19.6323 16.7717 19.6713 16.6962 19.6976C16.6862 19.701 16.6769 19.7043 16.6682 19.7072C16.654 19.7216 16.6479 19.7277 16.6406 19.7303C16.637 19.7316 16.633 19.732 16.6274 19.7321C16.6246 19.7321 16.6218 19.7321 16.619 19.7321L15.9754 19.6572C15.9754 19.6572 15.9507 19.6323 15.9012 19.6073H16.0742C16.0623 19.4935 16.0276 19.3897 15.9783 19.2964C15.8355 18.981 15.5231 18.775 15.3235 18.6904C15.3191 18.6801 15.3131 18.6704 15.3053 18.6604C15.2988 18.6188 15.2747 18.5799 15.2329 18.5588L15.0843 18.4339L14.9606 18.5837L14.9111 18.6337L13.9952 18.2592L14.0714 18.3552L14.0197 18.3341L14.5737 19.0326L14.3665 19.3577C14.3198 19.4205 14.3319 19.4735 14.3473 19.5041C14.3429 19.5589 14.391 19.6073 14.391 19.6073L14.6385 19.7821L14.8785 19.6853C14.8693 19.7456 14.853 19.8156 14.8368 19.832L14.416 19.7821L13.9457 20.0317C13.7577 20.1645 13.6982 20.3692 13.7239 20.5366C13.7263 20.6049 13.7426 20.6712 13.7722 20.7308L13.896 20.9804L14.0315 20.9121C14.0226 20.959 14.0189 21.0067 14.0203 21.053C14.015 21.1753 14.0478 21.2904 14.1187 21.3799L14.2177 21.5047L14.3415 21.6795L14.49 21.5297C14.5395 21.4797 14.6633 21.3299 14.7128 21.2051L14.7375 21.1053L14.7278 21.0955L14.7378 21.0553L14.674 20.991L14.7375 20.9055L15.3068 21.0304L15.4306 21.0553L15.5049 20.9305L15.5296 20.8806C15.5296 20.868 15.5296 20.8618 15.5327 20.8587C15.5358 20.8556 15.542 20.8556 15.5544 20.8556H15.6286C15.6537 20.8584 15.6784 20.8612 15.7029 20.864C15.8957 20.8859 16.0689 20.9055 16.2227 20.9055C16.396 20.9055 16.495 20.9055 16.6187 20.8556C16.6187 20.8556 16.8586 21.1162 16.9241 21.2034L16.7428 21.7294V21.7543C16.3962 21.7793 16.223 21.8542 16.0002 22.0789C15.7032 21.7793 15.4804 21.7543 14.6636 21.7543C13.6982 21.7543 13.0299 21.1801 13.0299 20.2564V18.0845H18.9702L18.9455 20.3313C18.9455 21.0707 18.5354 21.5911 17.858 21.7724Z" fill="#FCE527"/>
</svg>
