<svg width="32" height="32" viewBox="0 0 32 32" fill="none" xmlns="http://www.w3.org/2000/svg">
<path d="M5.79745 6.99579L2.04556 10.3966L3.34375 12.0312C3.92188 11.6719 5.07812 10.7344 5.59375 10.7344C6.75 10.7344 7.78943 13.8672 8.78125 17.3125C9.67188 20.4062 10.5938 28.0938 14.8438 28.0938C19.7344 28.0938 30.0156 14.8906 30.0156 9.01435C30.0156 6.88807 29.5938 3.82812 25.3594 3.82812C20.8219 3.82812 18.5895 8.20714 18.0405 10.3966C18.4354 10.1333 19.5105 9.95781 20.103 9.95781C22.5165 9.95781 22.001 12.4595 21.6719 13.4688C21.3428 14.478 18.8125 19.3924 17.4481 19.3924C15.7806 19.3924 14.7932 12.1519 14.3105 9.01435C13.8278 5.87679 12.5772 4.16541 10.6684 4.16541C9.14126 4.16541 6.7848 6.05233 5.79745 6.99579Z" fill="#3CB9E6"/>
</svg>
