<svg width="32" height="32" viewBox="0 0 32 32" fill="none" xmlns="http://www.w3.org/2000/svg">
<path d="M2 16C2 8.26801 8.26801 2 16 2C23.732 2 30 8.26801 30 16C30 23.732 23.732 30 16 30C8.26801 30 2 23.732 2 16Z" fill="#172A73"/>
<path d="M5.57446 9.74463V10.3404L7.7524 10.6833C9.29561 10.9262 10.5394 12.0862 10.8989 13.6178L13.4485 24.4775C13.5116 24.7463 13.7497 24.9361 14.0238 24.9361H17.6015C17.8375 24.9361 18.0509 24.7947 18.1444 24.5763L24.3159 10.1605C24.4001 9.96385 24.257 9.74463 24.0445 9.74463H20.7482C20.5101 9.74463 20.2953 9.88845 20.2031 10.1095L16.0689 20.0212L14.4197 11.201C14.2617 10.3564 13.5296 9.74463 12.6766 9.74463H5.57446Z" fill="white"/>
</svg>
