<svg width="32" height="32" viewBox="0 0 32 32" fill="none" xmlns="http://www.w3.org/2000/svg">
<circle cx="16" cy="16" r="14" fill="#0B0006"/>
<path d="M4 12H4.63536L7.11326 20.75H6.4779L4 12Z" fill="#FFFDFE"/>
<path d="M5.71545 12H6.35081L8.82872 20.75H8.19336L5.71545 12Z" fill="#FFFDFE"/>
<path d="M9.33699 12H7.43091L9.90881 20.75H11.8149L13.5081 15.0625L15.3094 20.75H17.1201L19.5027 12H17.6284L16.1461 17.5938L14.4199 12H12.6091L10.8936 17.4968L9.33699 12Z" fill="#FEDB32"/>
<path d="M19.5027 16.0625L20.5829 12H21.4088V17.5625C21.4088 18.3909 22.0915 19.0625 22.9337 19.0625H23.5691C24.4112 19.0625 25.0939 18.3909 25.0939 17.5625V12H27V17.5625C27 19.461 25.4355 21 23.5055 21H22.9972C21.0673 21 19.5027 19.461 19.5027 17.5625V16.0625Z" fill="#FEDB32"/>
</svg>
