<svg width="32" height="32" viewBox="0 0 32 32" fill="none" xmlns="http://www.w3.org/2000/svg">
<path d="M2 5.02367C2 3.35374 3.35374 2 5.02367 2H26.9763C28.6463 2 30 3.35374 30 5.02367V26.9763C30 28.6463 28.6463 30 26.9763 30H5.02367C3.35374 30 2 28.6463 2 26.9763V5.02367Z" fill="#558AAD"/>
<path d="M12.3317 11.7751C11.9215 12.3753 11.2316 12.7692 10.4497 12.7692C10.0769 12.7692 9.72507 12.6796 9.41445 12.5209L12.4312 15.5377C12.69 14.5638 13.5778 13.8461 14.6331 13.8461C15.415 13.8461 16.1049 14.24 16.5152 14.8402H22.6686C23.3778 14.8402 23.9527 15.4151 23.9527 16.1242C23.9527 16.8334 23.3778 17.4082 22.6686 17.4082H16.5152C16.1049 18.0084 15.415 18.4023 14.6331 18.4023C14.2923 18.4023 13.9689 18.3274 13.6785 18.1933L15.9586 20.4733H22.6686C23.3778 20.4733 23.9527 21.0482 23.9527 21.7573C23.9527 22.4665 23.3778 23.0414 22.6686 23.0414H12.3317C11.9215 23.6415 11.2316 24.0354 10.4497 24.0354C10.0639 24.0354 9.70051 23.9395 9.38204 23.7703L15.8464 29.9999H26.9763C28.6463 29.9999 30 28.6462 30 26.9763V15.9999L23.4556 9.45557L23.4329 9.45914C23.7483 9.69309 23.9527 10.0682 23.9527 10.4911C23.9527 11.2002 23.3778 11.7751 22.6686 11.7751H12.3317Z" fill="#4C7B9B"/>
<rect x="8.95858" y="20.4734" width="14.9941" height="2.56805" rx="1.28402" fill="#A1BED2"/>
<rect x="12.7278" y="14.8402" width="11.2249" height="2.56805" rx="1.28402" fill="#A1BED2"/>
<rect x="8.95858" y="9.20715" width="14.9941" height="2.56805" rx="1.28402" fill="#A1BED2"/>
<path d="M12.3317 11.7751C12.5816 11.4095 12.7278 10.9674 12.7278 10.4911C12.7278 10.0383 12.5957 9.61646 12.368 9.26184L14.9645 11.7751H12.3317Z" fill="#98B3C6"/>
<path d="M16.5152 17.4083C16.7651 17.0427 16.9112 16.6005 16.9112 16.1243C16.9112 15.7122 16.8019 15.3258 16.6106 14.9923L19.1065 17.4083H16.5152Z" fill="#98B3C6"/>
<path d="M12.3317 23.0415C12.5816 22.6759 12.7278 22.2337 12.7278 21.7574C12.7278 21.3047 12.5957 20.8828 12.368 20.5282L14.9645 23.0415H12.3317Z" fill="#98B3C6"/>
<circle cx="10.4497" cy="10.4911" r="2.27811" fill="white"/>
<circle cx="14.6331" cy="16.1243" r="2.27811" fill="white"/>
<circle cx="10.4497" cy="21.7574" r="2.27811" fill="white"/>
</svg>
