<svg width="32" height="32" viewBox="0 0 32 32" fill="none" xmlns="http://www.w3.org/2000/svg">
<path d="M15.7002 30.0001C22.162 30.0001 27.4003 24.9599 27.4003 18.7425C27.4003 12.5251 22.162 7.48486 15.7002 7.48486C9.23834 7.48486 4 12.5251 4 18.7425C4 24.9599 9.23834 30.0001 15.7002 30.0001Z" fill="#FFCC00"/>
<path fill-rule="evenodd" clip-rule="evenodd" d="M21.6999 7.27697V17.7794C21.6999 18.8364 21.6207 19.8221 21.4726 20.3249C21.0983 21.5884 20.2874 22.6913 19.1736 23.4514C18.0598 24.2115 16.7099 24.5833 15.3469 24.5054C13.9838 24.4275 12.6891 23.9045 11.6767 23.023C10.6643 22.1414 9.99468 20.9539 9.77851 19.6566C9.56234 18.3594 9.81253 17.03 10.4878 15.8881C11.163 14.7461 12.2228 13.86 13.4923 13.3759C14.7617 12.8919 16.1647 12.839 17.4696 13.226C18.7745 13.6129 19.9032 14.4166 20.6693 15.5042L20.5006 14.5145V2L28 4.30892V9.21674L21.6999 7.27697Z" fill="#FF3333"/>
</svg>
