<svg width="32" height="32" viewBox="0 0 32 32" fill="none" xmlns="http://www.w3.org/2000/svg">
<path fill-rule="evenodd" clip-rule="evenodd" d="M6.31573 20.1683L4.85096 20.6943L4.77231 24.9776L9.84288 23.1568C8.10373 22.5826 6.8337 21.5723 6.31573 20.1683Z" fill="#FDBD39"/>
<path fill-rule="evenodd" clip-rule="evenodd" d="M7.0823 15.638L2 17.4629L4.85096 20.6943L6.31574 20.1683C5.79929 18.7684 6.11778 17.186 7.0823 15.638Z" fill="#F69833"/>
<path fill-rule="evenodd" clip-rule="evenodd" d="M15.6349 9.45743C9.16309 11.7813 4.99074 16.5768 6.31575 20.1683L29.7523 11.7526C28.4273 8.16108 22.1067 7.1335 15.6349 9.45743Z" fill="#FECF33"/>
<path fill-rule="evenodd" clip-rule="evenodd" d="M20.4331 22.4635C26.905 20.1395 31.0852 15.3654 29.7523 11.7526L6.31573 20.1683C7.64857 23.7811 13.9613 24.7874 20.4331 22.4635Z" fill="#EE6723"/>
<path fill-rule="evenodd" clip-rule="evenodd" d="M29.7523 11.7526L6.31573 20.1683C6.77465 21.4122 8.5247 22.0251 10.9802 22.0251C13.3742 22.0251 16.4386 21.443 19.6334 20.2958C26.1053 17.9719 30.6586 14.2093 29.7523 11.7526Z" fill="#F69833"/>
<path fill-rule="evenodd" clip-rule="evenodd" d="M25.0878 9.89578C22.6939 9.89578 19.6294 10.4779 16.4346 11.6251C9.96276 13.949 5.40939 17.7116 6.31573 20.1683L29.7523 11.7526C29.2934 10.5086 27.5433 9.89578 25.0878 9.89578Z" fill="#FDBD39"/>
<path fill-rule="evenodd" clip-rule="evenodd" d="M23.7935 25.2044H23.7934C23.1038 25.2044 22.0865 24.5922 20.7697 23.3847C19.2119 21.9562 17.4273 19.8639 15.7448 17.4933C14.0623 15.1227 12.6798 12.7528 11.852 10.8199C10.95 8.7135 10.8214 7.41837 11.4697 6.97042C11.6119 6.87231 11.7832 6.8226 11.979 6.8226C12.5064 6.8226 13.5339 7.20854 15.4341 9.04727L15.4756 9.08745L15.47 9.1446C15.457 9.27669 15.4451 9.40997 15.4344 9.54078L15.4132 9.80053L15.2268 9.61592C13.1794 7.58849 12.2782 7.36961 11.9857 7.36961C11.9023 7.36961 11.8359 7.38628 11.7883 7.41918C11.507 7.61341 11.4889 8.56472 12.3634 10.6066C13.1765 12.5051 14.5389 14.8392 16.1997 17.179C17.8605 19.5191 19.6177 21.5805 21.1477 22.9834C22.7976 24.4963 23.541 24.6596 23.7841 24.6596C23.8681 24.6596 23.9363 24.6419 23.9868 24.6069C24.2835 24.402 24.2839 23.3829 23.3087 21.1852L23.2639 21.0843L23.3619 21.0316C23.4599 20.9788 23.5547 20.9269 23.6436 20.8772L23.761 20.8116L23.8151 20.9335C24.5066 22.4908 25.1529 24.4701 24.3054 25.0557C24.1625 25.1544 23.9903 25.2044 23.7935 25.2044ZM23.7934 24.9642H23.7935L23.7934 25.0843L23.7934 24.9642Z" fill="#EE6723"/>
<path fill-rule="evenodd" clip-rule="evenodd" d="M20.5903 22.398L20.5804 22.5177C20.4168 24.5077 19.986 26.9002 18.8627 26.997C18.8401 26.999 18.8167 27 18.7932 27C18.0302 27 17.3083 25.9253 16.6476 23.8058C16.0225 21.8006 15.5374 19.1084 15.2817 16.225C15.026 13.3422 15.0298 10.6077 15.2925 8.52535C15.5788 6.25623 16.1238 5.07122 16.9124 5.0032C16.9357 5.00109 16.9599 5 16.9837 5C17.5373 5 18.3715 5.61611 19.2256 8.48587L18.668 8.59167C18.3828 7.63267 18.072 6.8527 17.7635 6.31674C17.4781 5.821 17.2007 5.548 16.9821 5.548C16.975 5.548 16.9677 5.54829 16.9606 5.54889C16.6188 5.5784 16.121 6.39336 15.8435 8.59302C15.5855 10.638 15.5824 13.3315 15.8347 16.1773C16.0872 19.0235 16.5644 21.6756 17.1783 23.6448C17.4532 24.5268 17.7548 25.2537 18.0503 25.7469C18.3229 26.2017 18.5867 26.4522 18.7931 26.4522C18.8002 26.4522 18.8072 26.4519 18.8143 26.4513C19.1413 26.4231 19.7576 25.5751 20.017 22.5913L20.5903 22.398Z" fill="#EE6723"/>
</svg>
