<svg width="155" height="121" viewBox="0 0 155 121" fill="none" xmlns="http://www.w3.org/2000/svg">
<path d="M78.1561 72.6815C78.2455 73.2157 78.1841 73.7329 77.9721 74.2331C77.7532 74.6922 77.7536 75.1991 77.9731 75.7538C77.8569 76.069 77.6687 76.3328 77.4085 76.5453C77.1895 76.751 77.1588 77.0729 77.3167 77.5112C76.5293 78.1077 75.8242 78.8171 75.2014 79.6395C74.6129 80.414 73.9592 81.1782 73.2404 81.9321C72.8092 82.3845 72.4224 82.7239 72.08 82.9501C71.7719 83.1284 71.3953 83.4027 70.9503 83.7729L69.5743 85.017C68.9376 85.5038 68.2803 85.994 67.6025 86.4877C66.9658 86.9744 66.4079 87.5536 65.9288 88.2252C65.0727 88.4107 64.227 88.7846 63.3916 89.3469C62.5632 89.9502 61.7655 90.485 60.9986 90.9513C60.6905 91.1296 60.3755 91.2668 60.0536 91.3629C59.7386 91.5001 59.4305 91.6784 59.1292 91.8978L58.2151 92.4944C57.688 92.8783 57.058 93.2795 56.3254 93.6978C55.5996 94.1572 54.9284 94.4385 54.312 94.5417C53.9697 94.7679 53.7096 95.1072 53.5318 95.5594C52.2513 96.2384 50.9125 96.8215 49.5154 97.3088C48.1184 97.796 46.7865 98.4203 45.5197 99.1814C45.1021 99.4626 44.6742 99.8088 44.236 100.22C43.8459 100.666 43.3802 100.912 42.8391 100.961C42.7502 101.187 42.7093 101.447 42.7163 101.742C42.7234 102.036 42.7099 102.334 42.6758 102.636L42.4909 102.667C42.3265 102.694 42.2306 102.626 42.2031 102.461C42.2167 102.29 42.1413 102.218 41.9769 102.246C41.8536 102.266 41.7748 102.301 41.7406 102.349C41.227 102.561 40.7305 102.75 40.2511 102.915C39.8128 103.073 39.306 103.2 38.7307 103.296C38.4019 103.351 37.8608 103.399 37.1073 103.441C36.395 103.476 35.8641 103.459 35.5147 103.39C35.2475 103.308 35.0042 103.117 34.7848 102.816C34.5654 102.514 34.3426 102.193 34.1163 101.85C33.9311 101.501 33.7425 101.131 33.5504 100.741C33.4064 100.385 33.2726 100.09 33.1491 99.8575C33.1968 99.3848 33.3404 98.9805 33.5799 98.6447C33.8194 98.3089 33.9835 97.9012 34.0723 97.4217C34.4353 97.3187 34.7948 97.1952 35.1509 97.0511C35.507 96.907 35.8734 96.8246 36.2502 96.8038C37.4622 96.2207 38.6743 95.6377 39.8863 95.0546C41.1464 94.5058 42.3824 93.9399 43.5945 93.3568C44.8065 92.7738 45.9912 92.1531 47.1484 91.4947C48.3056 90.8364 49.4045 90.0821 50.4451 89.2321L51.7396 89.0154C52.4106 88.4807 53.174 87.9939 54.03 87.5549C54.886 87.1159 55.5466 86.5196 56.0119 85.7658C57.3199 85.2511 58.6723 84.6235 60.0692 83.8828C61.4662 83.1421 62.5683 82.1549 63.3758 80.9214C63.9785 80.7361 64.4887 80.5028 64.9063 80.2217C65.3171 79.8995 65.7074 79.5807 66.0771 79.2654L67.1758 78.2577C67.5386 77.9013 67.9734 77.5962 68.4801 77.3424C68.7539 76.9586 69.0036 76.5577 69.2294 76.1397C69.4552 75.7217 69.7529 75.3551 70.1226 75.0397C69.8893 74.4028 69.478 73.9647 68.8887 73.7253C68.2995 73.486 67.7616 73.1747 67.275 72.7914L65.9188 73.0183C64.7403 72.5396 63.5071 72.239 62.2192 72.1166C60.9656 71.9461 59.7085 71.7552 58.448 71.5436C58.3589 71.5163 58.2527 71.5129 58.1294 71.5336C57.8418 71.5817 57.674 71.7154 57.6262 71.9346C57.6195 72.147 57.4689 72.2567 57.1744 72.2637C56.7632 72.079 56.3488 72.0005 55.9309 72.0282C55.5062 72.0148 55.0678 72.0459 54.6158 72.1216C54.0405 72.2178 53.472 72.3552 52.9104 72.5337C52.3831 72.6642 51.8317 72.7776 51.2564 72.8738C50.9687 72.922 50.6776 72.9496 50.3831 72.9566C50.0885 72.9636 49.7837 72.9091 49.4685 72.7928L48.6671 72.9269C47.8041 73.0713 46.948 73.2568 46.0988 73.4834C45.2837 73.6621 44.4653 73.8202 43.6434 73.9577C43.1913 74.0334 42.7598 74.1056 42.3489 74.1743C41.931 74.202 41.5098 74.2091 41.0851 74.1957C40.2908 74.7511 39.4143 75.1935 38.4556 75.5229C37.4968 75.8523 36.49 76.1475 35.4353 76.4085C34.4217 76.6627 33.4081 76.9168 32.3944 77.1709C31.3739 77.3839 30.4048 77.6517 29.4871 77.9742C29.2337 77.9744 28.9837 77.9951 28.7371 78.0364C28.5248 78.0297 28.3158 78.0435 28.1104 78.0779C27.9049 78.1123 27.6823 78.1707 27.4426 78.253C27.2371 78.2874 27.0351 78.3423 26.8365 78.4178C26.206 77.9319 25.4797 77.631 24.6576 77.515C23.8698 77.3512 23.0991 77.29 22.3456 77.3316C21.6534 76.7293 21.105 76.1029 20.7004 75.4524C20.3301 74.7539 20.0281 73.9595 19.7947 73.0692L20.0412 73.0279C20.3289 72.9798 20.4281 72.8153 20.3389 72.5345C20.2907 72.2469 20.3522 71.9831 20.5233 71.7432C20.6875 71.4623 20.9271 71.2532 21.2421 71.116C21.5914 70.9308 21.92 70.7491 22.2282 70.5708C22.5363 70.3925 22.8204 70.1971 23.0806 69.9846C23.375 69.7241 23.57 69.3746 23.6656 68.9361L24.4669 68.802C24.6313 68.7745 24.7991 68.7676 24.9704 68.7811C25.1759 68.7468 25.3506 68.7809 25.4945 68.8835C25.6314 68.6917 25.8128 68.5134 26.0387 68.3489C26.2647 68.1843 26.47 68.0232 26.6549 67.8656C26.8808 67.701 27.0622 67.5228 27.1991 67.3309C27.336 67.139 27.3975 66.8753 27.3835 66.5396C27.4453 66.656 27.5583 66.7005 27.7227 66.673C27.8871 66.6455 28.024 66.5803 28.1336 66.4775C28.2842 66.3678 28.4657 66.3163 28.678 66.323C28.7872 65.7133 29.085 65.3466 29.5712 65.223C30.0575 65.0994 30.4855 64.8799 30.8552 64.5645C31.1153 64.352 31.3515 64.1224 31.5637 63.8757C31.769 63.5878 31.9983 63.3171 32.2516 63.0635L35.4756 59.609L40.4247 54.345C42.0744 52.5903 43.7824 50.9315 45.5486 49.3685C45.5895 49.1082 45.6819 48.9026 45.8256 48.7518C45.9694 48.6011 46.1131 48.4503 46.2569 48.2995C46.3938 48.1076 46.4895 47.9226 46.5442 47.7444C46.64 47.5594 46.6398 47.306 46.5437 46.9841C47.0984 46.7645 47.4921 46.4663 47.7247 46.0894C47.9985 45.7056 48.2277 45.3082 48.4124 44.897C48.5902 44.4448 48.7714 44.0132 48.9561 43.602C49.175 43.143 49.4933 42.7728 49.9109 42.4917C49.8492 42.3753 49.7977 42.1938 49.7565 41.9473C49.7014 41.6185 49.667 41.2863 49.6531 40.9507C49.6802 40.6081 49.7965 40.293 50.0018 40.0051C49.4875 39.204 48.7474 38.6942 47.7814 38.4756C46.8085 38.216 45.8871 38.0111 45.017 37.8609L44.8321 37.8919C44.6266 37.9263 44.5205 38.0496 44.5138 38.262C44.5413 38.4264 44.4592 38.5669 44.2675 38.6834C43.5825 38.6291 42.829 38.6707 42.0071 38.8082C41.1852 38.9458 40.3736 39.1449 39.5723 39.4058C38.8121 39.6597 38.0142 39.8144 37.1786 39.8697C37.0828 40.0547 36.9665 40.2432 36.8296 40.4351C36.7338 40.6201 36.5935 40.7914 36.4087 40.9491C35.5525 41.1346 34.7102 41.4023 33.8815 41.7522L31.3957 42.8019L30.0295 43.3473C29.8378 43.4639 29.718 43.6318 29.6702 43.851C29.6224 44.0703 29.5986 44.3066 29.5987 44.5601C29.3453 44.5602 29.1637 44.485 29.054 44.3344C28.9854 44.1769 28.821 44.0777 28.5606 44.0367C27.7117 44.7702 26.7634 45.4148 25.7157 45.9703C24.7092 46.5189 23.8397 47.2559 23.1074 48.1811C22.7647 47.9005 22.3262 47.8049 21.792 47.8943C21.3399 47.9699 20.8709 48.1963 20.3848 48.5734C19.8987 48.9504 19.6318 49.3753 19.5842 49.848C19.1595 49.8346 18.8444 49.845 18.6389 49.8794C18.1868 49.9551 17.8171 50.1437 17.5296 50.4453C17.2832 50.74 17.0436 51.0758 16.811 51.4527C16.5715 51.7885 16.3114 52.1277 16.0308 52.4704C15.7501 52.8131 15.3667 53.0463 14.8804 53.1699C14.9148 53.3753 14.9526 53.6014 14.9939 53.8479C15.0694 54.0465 15.1277 54.2691 15.169 54.5157C15.4785 56.365 15.6852 58.2315 15.7892 60.1151C15.8863 61.9577 16.0896 63.8036 16.399 65.6529C16.4678 66.0639 16.5571 66.4714 16.667 66.8755C16.77 67.2384 16.8593 67.646 16.9349 68.098C16.9556 68.2213 16.8975 68.5056 16.7608 68.9509C16.6652 69.3894 16.5935 69.7182 16.5457 69.9375C16.7857 70.362 16.923 70.8037 16.9576 71.2627C17.0332 71.7147 17.2082 72.129 17.4824 72.5056C17.1676 72.8962 17.0583 73.3792 17.1546 73.9546C17.1958 74.2011 17.2371 74.4477 17.2784 74.6943C17.3607 74.934 17.4225 75.1771 17.4638 75.4237L17.5876 76.1634C17.6018 77.0059 17.6606 77.8621 17.7639 78.732C17.8604 79.5608 17.9774 80.3861 18.1149 81.2081C18.1768 81.5779 18.2834 82.2149 18.4347 83.119C18.6202 83.9751 18.8469 84.9511 19.1148 86.0469C19.3758 87.1016 19.6847 88.1906 20.0417 89.3137C20.3986 90.4369 20.7829 91.471 21.1945 92.416C21.6403 93.313 22.1203 94.0354 22.6344 94.5831C23.1485 95.1307 23.6932 95.3564 24.2686 95.2601C24.3919 95.2395 24.5322 95.1949 24.6898 95.1263C24.8884 95.0508 24.9739 94.9309 24.9464 94.7665C24.9189 94.6021 24.8537 94.4651 24.7509 94.3556C24.6892 94.2392 24.6446 94.0988 24.617 93.9344L24.6581 93.8008C25.0143 93.9102 25.3808 93.9545 25.7576 93.9337C26.1754 93.906 26.5932 93.8783 27.011 93.8507C27.4289 93.823 27.8296 93.8193 28.2132 93.8396C28.6037 93.901 28.9703 94.072 29.313 94.3526C29.2036 94.7089 29.1799 95.0719 29.2418 95.4418C29.3243 95.9349 29.5232 96.3664 29.8386 96.7361C30.1608 97.1468 30.4008 97.5714 30.5586 98.0097C29.8191 98.3869 29.1446 98.7744 28.5352 99.1721C27.9738 99.604 27.4055 99.9948 26.8304 100.345C26.2621 100.735 25.6458 101.092 24.9816 101.414C24.3242 101.778 23.5504 102.076 22.66 102.31C22.0228 102.036 21.4747 101.79 21.0156 101.571C20.5565 101.352 19.9707 101.26 19.2584 101.295C17.9492 100.035 16.794 98.5599 15.7928 96.8686C14.7985 95.2184 13.9342 93.462 13.2001 91.5992C12.507 89.7297 11.9166 87.8429 11.429 85.9389C10.9757 83.987 10.6046 82.148 10.3157 80.422C9.99938 78.5316 9.74812 76.6515 9.56194 74.7816C9.40998 72.8637 9.29911 70.9389 9.22934 69.0073C9.21526 68.4182 9.20117 67.8291 9.18708 67.24C9.16612 66.6098 9.14859 66.0002 9.1345 65.4111C9.18231 65.1919 9.20613 64.9555 9.20596 64.7021C9.24001 64.4007 9.23985 64.1472 9.20546 63.9417C9.08855 63.2431 8.9511 62.5479 8.79309 61.8562C8.63509 61.1645 8.50107 60.4898 8.39104 59.8323C8.21912 58.8049 8.10539 57.7467 8.04988 56.6576C8.05659 56.4452 8.07353 56.1678 8.10071 55.8253C8.16898 55.4759 8.18248 55.1779 8.14122 54.9313C8.0862 54.6026 7.96619 54.3903 7.78118 54.2945C7.59616 54.1987 7.41795 54.0173 7.24652 53.7503C7.30104 53.3187 7.33844 52.9111 7.35874 52.5275C7.37216 52.1028 7.34449 51.685 7.27572 51.274C7.14506 50.4932 6.88775 49.8392 6.50381 49.312C6.53048 48.2091 6.66333 47.1096 6.90236 46.0135C7.14139 44.9173 7.72989 44.0162 8.66787 43.31C9.49665 43.2136 10.3323 43.1582 11.1748 43.144C12.0585 43.1228 12.8566 43.3484 13.5694 43.8205C13.8295 43.608 14.1411 43.4503 14.5041 43.3473L15.6546 43.028C16.0587 42.9181 16.4183 42.7946 16.7333 42.6574C17.0414 42.4791 17.2912 42.2049 17.4828 41.8349C18.2772 41.533 19.1229 41.1591 20.02 40.7133C20.9101 40.2263 21.6702 39.7189 22.3 39.1911L23.6562 38.9641C23.9094 38.7105 24.2141 38.5117 24.5702 38.3676L25.6899 37.8634C26.0802 37.6713 26.4294 37.4861 26.7375 37.3078C27.0868 37.1227 27.3401 36.869 27.4974 36.547L27.744 36.5057C28.6892 36.3476 29.5794 35.9874 30.4147 35.4251C31.2501 34.8629 32.0717 34.3452 32.8797 33.872C33.0714 33.7554 33.3556 33.56 33.7321 33.2857C34.1498 33.0046 34.4408 32.8503 34.6052 32.8228C35.1668 32.6443 35.7352 32.507 36.3106 32.4107C36.879 32.2733 37.4406 32.0948 37.9953 31.8753C39.276 31.4497 40.5326 31.0071 41.7653 30.5473C43.0322 30.0396 44.3232 29.6757 45.6383 29.4556C46.0903 29.38 46.5047 29.3318 46.8814 29.311C47.2924 29.2422 47.7273 29.1905 48.1863 29.156C48.2549 29.3135 48.3817 29.4401 48.5667 29.5359C48.7448 29.5906 48.9024 29.6487 49.0394 29.7103C49.2176 29.765 49.382 29.8642 49.5328 30.0079C49.6768 30.1106 49.7488 30.2886 49.749 30.5421C49.8449 30.6105 49.934 30.6379 50.0162 30.6241C50.1394 30.6035 50.2319 30.5246 50.2934 30.3876C50.3961 30.2437 50.5501 30.1545 50.7556 30.1201L51.0638 30.0686C51.6944 30.5545 52.3009 31.0233 52.8834 31.475C53.5002 31.8788 54.2265 32.1797 55.0623 32.3778C55.5974 33.5556 56.1907 34.7026 56.8421 35.8187C57.4936 36.9348 57.9328 38.171 58.1598 39.5271C58.2973 40.349 58.3081 41.171 58.1922 41.9931C57.665 42.377 57.3297 42.8978 57.1863 43.5555C57.0429 44.2132 56.9166 44.8469 56.8074 45.4566C55.753 46.2245 54.9145 47.1464 54.2918 48.2223C53.6692 49.2981 53.026 50.3774 52.3623 51.4601L51.376 51.6252C51.2116 51.6527 51.0986 51.735 51.0371 51.872L50.5854 52.5813C50.2706 52.9719 49.9147 53.3695 49.5176 53.7739C49.1617 54.1714 48.9257 54.6545 48.8096 55.2231C47.6526 56.1349 46.5504 57.122 45.503 58.1845C44.4968 59.24 43.5385 60.3298 42.6282 61.4538C42.238 61.8993 41.8582 62.4064 41.4887 62.9752C41.1123 63.5029 40.7256 63.969 40.3285 64.3734C40.1164 64.6201 39.8596 64.8532 39.5584 65.0726C39.2913 65.244 39.0517 65.4531 38.8395 65.6998C38.3741 66.2002 37.9531 66.7142 37.5767 67.2419C37.1935 67.7285 36.7862 68.198 36.3549 68.6504C38.1905 68.2587 40.0534 67.9047 41.9438 67.5884C43.8273 67.2309 45.6903 66.8769 47.5327 66.5264C48.4779 66.3682 49.3991 66.1929 50.2963 66.0005C51.1866 65.767 52.1044 65.5712 53.0496 65.413C53.214 65.3855 53.3647 65.4026 53.5017 65.4641C53.6319 65.4846 53.7826 65.5016 53.9539 65.5152C54.6731 65.5216 55.3136 65.5623 55.8754 65.6372C57.9098 65.677 59.9374 65.6757 61.9581 65.6332C63.9788 65.5908 65.9894 65.7402 67.9898 66.0814C68.5584 66.1974 68.9866 66.3581 69.2745 66.5634C69.6034 66.7619 70.1069 66.741 70.7849 66.5008C71.4565 66.9799 72.1485 67.3288 72.8611 67.5475C73.6147 67.7593 74.3615 67.9301 75.1014 68.0598C75.7731 68.7923 76.3969 69.4905 76.9728 70.1546C77.5897 70.8118 77.9841 71.6541 78.1561 72.6815ZM139.031 4.00484C139.093 4.3747 139.134 4.748 139.155 5.12473C139.217 5.49459 139.255 5.84734 139.269 6.18298C139.18 6.40908 138.947 6.53254 138.57 6.55333C138.235 6.56725 137.964 6.59141 137.759 6.62579C137.553 6.66018 137.375 6.73222 137.224 6.84192C137.108 6.90364 137.067 7.03724 137.101 7.24272C137.143 7.48929 137.191 7.65023 137.246 7.72555C136.91 7.73947 136.554 7.75683 136.177 7.77762C135.8 7.79842 135.451 7.73015 135.129 7.57281C134.574 7.79238 134.047 8.0496 133.547 8.34448C133.088 8.63248 132.633 8.94102 132.181 9.27012C131.729 9.59921 131.253 9.9112 130.753 10.2061C130.254 10.501 129.719 10.7171 129.151 10.8545C128.85 11.3273 128.429 11.7146 127.888 12.0164C127.347 12.3181 126.782 12.6027 126.193 12.8703C125.604 13.1378 125.063 13.4396 124.57 13.7755C124.07 14.0704 123.694 14.4714 123.441 14.9785C122.551 15.2119 121.725 15.5824 120.965 16.0898C120.205 16.5972 119.449 17.1251 118.696 17.6736C117.984 18.2152 117.248 18.7397 116.488 19.2471C115.728 19.7545 114.885 20.149 113.961 20.4304C113.755 20.7182 113.482 20.9753 113.139 21.2016C112.838 21.421 112.516 21.6438 112.174 21.8701C111.825 22.0553 111.499 22.2575 111.198 22.4769C110.897 22.6963 110.668 22.9671 110.51 23.2891L110.387 23.3097C110.223 23.3372 110.092 23.3168 109.996 23.2483C109.9 23.1799 109.77 23.1594 109.606 23.187C109.483 23.2076 109.404 23.2419 109.37 23.2899C108.459 23.907 107.552 24.5446 106.648 25.2028C105.744 25.861 104.796 26.5055 103.803 27.1363C101.852 28.3501 99.8763 29.5467 97.8769 30.7262C95.8775 31.9057 93.9912 33.2564 92.2181 34.7782C92.0411 36.4977 91.9532 38.2445 91.9544 40.0186C91.9487 41.7517 91.7066 43.4609 91.2282 45.1463L91.713 48.0435C91.4328 48.8931 91.3101 49.8008 91.3449 50.7666C91.3798 51.7324 91.4695 52.6469 91.6139 53.5099C91.6689 53.8386 91.7205 54.1468 91.7686 54.4345C91.851 54.6742 91.9162 54.9379 91.9644 55.2255C93.1011 54.6973 94.1899 54.1349 95.2307 53.5383C96.3126 52.9348 97.4014 52.3724 98.497 51.8511C99.038 51.5493 99.5892 51.3092 100.151 51.1307C100.753 50.9454 101.325 50.7018 101.866 50.4001C102.298 50.2012 102.743 49.9577 103.201 49.6697C103.653 49.3406 104.088 49.0355 104.506 48.7544C105.649 48.0138 106.824 47.3315 108.029 46.7073C109.275 46.0763 110.559 45.5446 111.881 45.1122C112.237 44.7146 112.637 44.3308 113.082 43.9606C113.527 43.5904 113.996 43.364 114.489 43.2815C114.859 43.2196 115.178 43.2297 115.445 43.3117C116.075 42.7839 116.835 42.2765 117.725 41.7895C118.615 41.3026 119.478 41.0315 120.314 40.9761C120.471 40.6541 120.687 40.4279 120.961 40.2975C121.228 40.1261 121.526 40.0129 121.854 39.9579C122.019 39.9304 122.166 39.9268 122.296 39.9473C122.461 39.9198 122.646 39.8889 122.851 39.8545C123.214 39.498 123.631 39.2169 124.104 39.0111C124.576 38.8053 125.052 38.62 125.532 38.4553C126.011 38.2906 126.467 38.1088 126.898 37.9098C127.364 37.6629 127.754 37.3442 128.069 36.9535C128.651 36.8983 129.131 36.9871 129.507 37.2197C129.925 37.4455 130.292 37.7432 130.607 38.1129C130.923 38.4826 131.2 38.8797 131.44 39.3043C131.681 39.7288 131.958 40.1259 132.274 40.4956C132.246 40.8381 132.168 41.1259 132.038 41.3588C131.901 41.5507 131.743 41.7461 131.566 41.9448C131.388 42.1436 131.23 42.3389 131.093 42.5308C130.956 42.7227 130.891 42.9659 130.899 43.2605C129.46 43.5012 128.097 43.9404 126.81 44.5783C125.564 45.2094 124.328 45.902 123.102 46.6563C121.918 47.4037 120.688 48.1375 119.415 48.8576C118.175 49.5297 116.867 50.0443 115.491 50.4014C115.32 50.6413 115.08 50.8503 114.772 51.0286L113.899 51.4916C113.625 51.6219 113.379 51.7899 113.159 51.9955C112.934 52.1601 112.783 52.3965 112.708 52.7048C112.441 52.6228 112.163 52.6059 111.876 52.654C111.177 52.7709 110.53 53.0693 109.934 53.5492C109.339 54.0291 108.63 54.3378 107.808 54.4753C107.479 54.5303 107.25 54.5476 107.119 54.5272C106.976 54.9314 106.712 55.2501 106.329 55.4832C105.987 55.7095 105.6 55.9221 105.168 56.1211C104.771 56.272 104.381 56.4641 103.997 56.6972C103.655 56.9235 103.415 57.2593 103.279 57.7046C103.149 57.6842 103.001 57.6877 102.837 57.7152L102.467 57.7771C101.81 57.8871 101.07 58.1376 100.248 58.5286C99.4606 58.8716 98.9335 59.3823 98.6668 60.0606C98.3243 60.0335 98.0297 60.0405 97.7832 60.0818C97.2078 60.178 96.7148 60.3873 96.304 60.7095C95.8863 60.9906 95.4755 61.3128 95.0716 61.6762L93.8599 62.7661C93.456 63.1294 92.9972 63.4174 92.4836 63.6301C91.6696 65.3294 91.2222 67.1998 91.1413 69.2411C91.0605 71.2824 91.0961 73.3888 91.2482 75.5601C91.4414 77.7246 91.6312 79.8685 91.8176 81.9919C92.0108 84.1563 92.0087 86.1634 91.8113 88.013C92.1679 88.6292 92.4697 89.2969 92.7168 90.016C92.9638 90.7351 93.1904 91.4576 93.3963 92.1836C93.6092 92.9506 93.822 93.7177 94.0349 94.4847C94.2477 95.2518 94.5154 95.9674 94.8378 96.6317C95.1876 97.4603 95.7053 98.1552 96.3906 98.7164C97.124 99.3119 97.6861 100.021 98.0771 100.842C98.2895 100.849 98.4984 100.835 98.7039 100.801C98.9573 100.801 99.2073 100.78 99.4539 100.739C100.933 100.491 102.18 99.9867 103.193 99.2257C104.247 98.4578 105.196 97.5599 106.037 96.5318C106.886 95.5449 107.68 94.4826 108.419 93.345C109.206 92.2417 110.072 91.2307 111.017 90.3122L112.188 90.1162C112.42 89.7393 112.609 89.3487 112.752 88.9445C112.896 88.5403 113.063 88.1531 113.255 87.7831C113.446 87.4131 113.686 87.0773 113.973 86.7757C114.268 86.5152 114.655 86.3026 115.134 86.1379C115.154 85.5008 115.363 84.9801 115.76 84.5757C116.157 84.1713 116.383 83.6265 116.437 82.9415C116.526 82.9689 116.632 82.9722 116.755 82.9516C117.084 82.8966 117.317 82.7731 117.454 82.5812L118.234 81.5635C118.508 81.1797 118.802 80.7925 119.117 80.4018C119.48 80.0454 119.822 79.6924 120.144 79.3428C121.191 78.2804 122.239 77.218 123.286 76.1555C124.34 75.1342 125.268 73.9862 126.068 72.7116C126.116 72.7458 126.181 72.7561 126.263 72.7423C126.592 72.6873 126.801 72.5467 126.89 72.3206C126.979 72.0945 127.256 71.9847 127.722 71.9913C127.907 71.5802 128.071 71.1725 128.214 70.7682C128.351 70.3229 128.443 69.8639 128.491 69.3912L130.505 69.3077C131.176 69.2798 131.84 69.2109 132.498 69.1009C132.703 69.0665 132.888 69.0355 133.053 69.008C133.251 68.9326 133.426 68.84 133.576 68.7303C134.2 69.4286 134.608 70.2263 134.801 71.1235C134.986 71.9797 135.233 72.8255 135.542 73.661C135.46 73.6747 135.398 73.685 135.357 73.6919C135.35 73.6508 135.306 73.6371 135.224 73.6509C135.018 73.6853 134.827 73.8018 134.649 74.0006C134.505 74.1514 134.347 74.3467 134.176 74.5866L133.663 75.3062C133.492 75.546 133.334 75.7414 133.191 75.8922C132.787 76.2555 132.355 76.5811 131.897 76.8691C131.445 77.1982 131.014 77.5239 130.603 77.8461C130.192 78.1683 129.809 78.5282 129.453 78.9257C129.104 79.3644 128.85 79.8714 128.693 80.4469C127.926 80.9132 127.184 81.3966 126.465 81.8971C125.787 82.3908 125.133 82.9015 124.503 83.4294C124.332 83.6693 124.181 83.9057 124.051 84.1387C123.921 84.3717 123.836 84.6183 123.795 84.8786C122.747 85.4342 121.916 86.1437 121.3 87.0072C120.725 87.8638 120.14 88.7855 119.544 89.7723L119.473 89.721C119.185 89.7691 119.017 89.9028 118.969 90.122C118.963 90.3344 118.747 90.4338 118.322 90.4204C117.686 91.4141 116.998 92.353 116.259 93.2371C115.52 94.1212 114.76 95.0088 113.979 95.8998C113.199 96.7908 112.419 97.6818 111.639 98.5728C110.865 99.505 110.16 100.468 109.524 101.461C109.017 101.715 108.538 102.007 108.086 102.336C107.634 102.665 107.326 103.097 107.162 103.631L106.977 103.662C106.525 103.738 106.213 103.895 106.042 104.135C105.912 104.368 105.752 104.67 105.56 105.04C104.731 105.39 103.886 105.764 103.023 106.161C102.16 106.559 101.256 106.837 100.311 106.995C99.6533 107.106 98.9957 107.089 98.338 106.945C97.7214 106.795 97.0911 106.563 96.447 106.248C95.8508 105.967 95.2684 105.642 94.6996 105.273C94.1719 104.897 93.6682 104.537 93.1885 104.195C92.8043 103.414 92.3312 102.606 91.7689 101.771C91.2547 100.97 90.9287 100.159 90.7912 99.3366C90.7568 99.1312 90.743 98.9222 90.7497 98.7099C90.8044 98.5317 90.818 98.3605 90.7905 98.1961C90.7423 97.9084 90.6189 97.8024 90.4203 97.8778C90.2628 97.9464 90.1224 97.8643 89.9989 97.6315C89.848 97.2343 89.7072 96.772 89.5767 96.2447C89.4942 95.7515 89.374 95.2858 89.2162 94.8475C88.9347 93.923 88.6087 92.9847 88.2382 92.0328C87.9088 91.074 87.5623 90.1393 87.1986 89.2285C87.3492 89.1188 87.4484 88.9543 87.4963 88.7351C87.592 88.55 87.6878 88.365 87.7836 88.18C87.6053 87.8719 87.4201 87.5227 87.2281 87.1323C87.084 86.7762 86.9775 86.3927 86.9088 85.9818C86.7712 85.1599 86.9763 84.4918 87.5239 83.9777C87.4758 83.6901 87.3558 83.4778 87.1639 83.3409C87.02 83.2383 86.9205 83.0226 86.8655 82.6938C86.8518 82.6116 86.8345 82.3822 86.8137 82.0054C86.8271 81.5807 86.8336 81.1149 86.8333 80.608C86.8741 80.0942 86.8977 79.6045 86.9043 79.1387C86.9108 78.6729 86.9209 78.3543 86.9345 78.1831C86.9058 76.2445 86.8429 74.354 86.7458 72.5114C86.6418 70.6278 86.62 68.7303 86.6804 66.8191C86.2144 66.5592 85.6389 66.402 84.9539 66.3476C84.3031 66.2453 83.8269 66.0504 83.5253 65.7629C83.2717 65.5096 83.0454 65.1673 82.8465 64.7359C82.6475 64.3044 82.5206 63.9244 82.4656 63.5956C82.2661 62.4038 82.5805 61.3796 83.4088 60.5228C84.2302 59.6249 85.1649 59.0249 86.2127 58.7228C86.5062 57.1951 86.6525 55.6709 86.6515 54.1502C86.6847 52.5815 86.6563 51.0232 86.5662 49.4751L86.2857 44.7694C86.1888 43.1803 86.1775 41.5979 86.2518 40.0224L85.8819 40.0843C85.06 40.2218 84.2793 40.4792 83.5397 40.8564C82.8002 41.2337 82.0195 41.4911 81.1976 41.6286L81.0743 41.6492C79.7243 40.9035 78.9393 39.8731 78.7193 38.558C78.5886 37.7772 78.6223 36.9689 78.8204 36.1331C79.4367 35.7765 79.9776 35.348 80.443 34.8476C80.9085 34.3473 81.374 33.8469 81.8394 33.3466C82.3391 32.7983 82.8491 32.3116 83.3694 31.8865C83.8898 31.4615 84.4924 31.1494 85.1772 30.9503C85.06 29.7448 85.066 28.5187 85.1953 27.2719C85.3247 26.0251 85.2896 24.8058 85.0902 23.6141C85.0489 23.3675 84.9871 23.1244 84.9048 22.8847C84.8635 22.6381 84.7811 22.3984 84.6577 22.1656C84.8835 21.7476 85.0031 21.3262 85.0165 20.9015C85.071 20.47 85.0604 20.0281 84.9848 19.5761C84.9023 19.083 84.7821 18.6172 84.6242 18.1789C84.5006 17.6927 84.3599 17.2304 84.2021 16.7921C84.5444 16.5658 84.8046 16.3533 84.9825 16.1545C85.1536 15.9147 85.3076 15.6988 85.4445 15.5069C85.6225 15.3081 85.845 15.1231 86.112 14.9516C86.379 14.7802 86.7797 14.6498 87.3139 14.5604C88.0947 14.4297 88.7797 14.4841 89.369 14.7234C89.9925 14.9148 90.5509 15.2227 91.0444 15.6471C91.5379 16.0715 91.98 16.5678 92.3709 17.1361C92.8028 17.6975 93.2142 18.2623 93.605 18.8306C93.5984 19.2964 93.4685 19.6561 93.2152 19.9098C92.962 20.1634 92.7601 20.4718 92.6096 20.8349C92.8018 21.4787 92.9906 22.1019 93.176 22.7046C93.3544 23.2661 93.4576 23.8826 93.4854 24.5538C93.9308 24.6906 94.3384 24.728 94.7082 24.6661C95.3247 24.5629 95.8519 24.3057 96.2901 23.8944C96.7693 23.4762 97.0635 22.9623 97.1727 22.3526L97.296 22.332C97.4193 22.3113 97.5289 22.3352 97.6248 22.4037C97.7619 22.4652 97.9126 22.4822 98.077 22.4547L98.3235 22.4135C98.7068 21.9269 99.1484 21.5361 99.6482 21.2413C100.141 20.9053 100.658 20.5864 101.199 20.2847C101.74 19.9829 102.26 19.6846 102.76 19.3897C103.294 19.0469 103.777 18.6493 104.208 18.1969C104.475 18.2789 104.753 18.2959 105.041 18.2477C105.452 18.1789 105.828 18.0314 106.171 17.8051C106.554 17.572 106.917 17.3423 107.259 17.116C107.595 16.8486 107.954 16.5984 108.338 16.3652C108.762 16.1252 109.221 15.9639 109.714 15.8814C109.796 15.8676 109.903 15.871 110.033 15.8915C110.156 15.8708 110.259 15.8536 110.341 15.8399C110.629 15.7918 110.776 15.6615 110.782 15.4492C110.789 15.2368 110.758 15.0519 110.69 14.8944C111.95 14.3455 113.018 13.7866 113.894 13.2174C114.805 12.6004 115.808 11.9044 116.903 11.1297C116.897 11.0886 116.934 11.0611 117.016 11.0474C117.14 11.0267 117.232 11.0746 117.294 11.191C117.356 11.3075 117.393 11.4068 117.407 11.4889C117.633 11.3244 117.722 11.0983 117.674 10.8106C117.667 10.5161 117.728 10.2523 117.858 10.0193C118.03 10.0329 118.259 10.0156 118.547 9.96751C118.917 9.90561 119.273 9.76153 119.615 9.53526C119.998 9.3021 120.358 9.05184 120.693 8.78448C121.029 8.51711 121.368 8.27028 121.71 8.04401C122.052 7.81774 122.409 7.67365 122.778 7.61176C123.107 7.55675 123.388 7.59424 123.621 7.72423C123.847 7.55968 124.066 7.35404 124.278 7.1073C124.484 6.81947 124.73 6.65148 125.018 6.60334C125.1 6.58959 125.165 6.59982 125.213 6.63404C125.302 6.66138 125.391 6.68872 125.48 6.71606C125.651 6.4762 125.809 6.28088 125.952 6.13008C126.137 5.97241 126.206 5.74974 126.157 5.46208C127.65 5.04325 128.993 4.48067 130.184 3.77434C131.41 3.02004 132.546 2.11167 133.594 1.04924C134.059 1.05578 134.508 1.08631 134.94 1.14083C135.405 1.14737 135.864 1.11282 136.316 1.03717C136.639 1.44796 136.94 1.86218 137.221 2.27985C137.503 2.69751 137.989 2.82734 138.681 2.66933C138.756 2.86793 138.815 3.09052 138.856 3.33709C138.938 3.57678 138.997 3.79937 139.031 4.00484Z" fill="#A67551"/>
</svg>
